<?xml version="1.0" encoding="utf-8"?>
<!-- Generator: Adobe Illustrator 27.5.0, SVG Export Plug-In . SVG Version: 6.00 Build 0)  -->
<svg version="1.1" id="Слой_1" xmlns="http://www.w3.org/2000/svg" xmlns:xlink="http://www.w3.org/1999/xlink" x="0px" y="0px"
	 viewBox="0 0 3493.697 2000" style="enable-background:new 0 0 3493.697 2000;" xml:space="preserve">
<rect x="0.001" style="fill:#FFFFFF;" width="3493.698" height="2000"/>
<path style="fill:#D4DEFF;" d="M3451.637,1286.82c0.05,299.309-39.431,513.239-187.721,713.18H208.226
	c-288.02-528.32-27.01-598.3,62.01-774.42c19.46-38.49,30.7-82.041,26.2-136.56c-0.771-9.369-2.01-19.049-3.75-29.1v-0.01
	c-2.92-16.891-7.271-34.77-13.22-53.801c-6.27-20.029-12.38-40.18-18.18-60.36v-0.01c-5.09-17.669-9.94-35.339-14.45-53
	c-54.44-212.8-60.34-421,159-527.43c310.01-150.42,435.84,80.069,685.3,41.75c282.41-43.38,327.16-331.821,764-332.69
	c251.189-0.491,586.09,300.23,904.34,160.1c296.949-130.749,626.119,83.94,547.66,366.51
	C3237.906,850.3,3451.576,936.67,3451.637,1286.82z"/>
<g>
	<path style="fill:#F0F4FF;" d="M973.58,670.039c0.168,1.875,0.943,5.465,0.943,5.465l39.724,0.93l0.829-38.382l-26.531-6.018
		C971.709,635.917,972.657,659.738,973.58,670.039z"/>
	<path style="fill:#F0F4FF;" d="M1026.316,595.722c-25.067,1.508-36.751,31.666-36.751,31.666
		c41.486,4.432,47.918,17.725,47.918,17.725l-4.5,15.179l37.693-26.2l-13.206-40.1l-5.643,12.396
		C1051.826,606.386,1033.022,596.221,1026.316,595.722z"/>
	<path style="fill:#F0F4FF;" d="M1092.144,609.029l-15.373,36.64l35.427,14.79l15.293-22.499
		c2.534-17.091-19.988-24.91-29.914-27.812C1095.77,609.619,1092.144,609.029,1092.144,609.029z"/>
	<path style="fill:#F0F4FF;" d="M1097.442,678.739l-12.485-9.733l10.623,44.658l42.153,2.352l-9.478-9.779
		c0,0,16.331-13.792,19.245-19.854c7.751-23.887-16.055-45.778-16.055-45.778C1112.165,677.607,1097.442,678.739,1097.442,678.739z"
		/>
	<path style="fill:#F0F4FF;" d="M1049.049,758.923c13.659,10.581,31.508-5.224,38.9-12.456c1.346-1.316,3.637-4.188,3.637-4.188
		l-24.412-31.351l-30.249,23.641L1049.049,758.923z"/>
	<path style="fill:#F0F4FF;" d="M975.983,729.614l13.169-3.472c0,0,4.024,20.993,7.881,26.503
		c17.028,18.458,47.773,8.426,47.773,8.426c-22.814-34.932-16.589-48.321-16.589-48.321l14.602-6.118l-44.137-12.615
		L975.983,729.614z"/>
</g>
<g>
	<path style="fill:#E3EAFF;" d="M207.095,1527.008c-1.25,1.1-3.405,3.531-3.405,3.531l20.129,28.816l27.807-19.498l-9.595-22.07
		C230.45,1507.813,213.957,1520.957,207.095,1527.008z"/>
	<path style="fill:#E3EAFF;" d="M287.696,1525.718c-14.196-17.087-41.818-9.636-41.818-9.636
		c18.553,31.908,12.439,43.451,12.439,43.451l-13.18,4.734l38.413,13.168l21.686-30.406l-11.793,2.463
		C293.443,1549.492,290.851,1530.762,287.696,1525.718z"/>
	<path style="fill:#E3EAFF;" d="M312.661,1579.629l-34.177,8.215l7.995,33.006l24.05-0.869c13.515-7.139,7.303-27.293,4.178-35.891
		C314.137,1582.523,312.661,1579.629,312.661,1579.629z"/>
	<path style="fill:#E3EAFF;" d="M265.718,1619.894l0.407-13.999l-26.289,30.95l20.386,31.292l2.014-11.877
		c0,0,18.383,4.428,24.231,3.333c21.091-6.975,24.243-35.409,24.243-35.409C274.232,1629.801,265.718,1619.894,265.718,1619.894z"/>
	<path style="fill:#E3EAFF;" d="M183.206,1627.35c-0.396,15.278,20.217,19.735,29.243,21.224c1.643,0.27,4.89,0.4,4.89,0.4
		l9.581-33.818l-32.692-9.199L183.206,1627.35z"/>
	<path style="fill:#E3EAFF;" d="M165.865,1559.902l9.369,7.574c0,0-12.866,13.857-14.776,19.492
		c-4.251,21.805,18.994,38.48,18.994,38.48c12.972-34.554,25.78-37.123,25.78-37.123l12.005,7.213l-14.105-38.08L165.865,1559.902z"
		/>
</g>
<g>
	<g>
		<path style="fill:#C4204A;" d="M1470.589,836.05c0,0,39.569,13.894,86.077,84.029c-16.983,0-70.876,0-70.876,0L1470.589,836.05z"
			/>
		<g>
			<path style="fill:#87571A;" d="M1508.237,908.812c0,0,32.86,1.595,55.192,4.147c22.332,2.552,137.451,25.21,175.281,52.165
				c-17.362,14.193-111.871,4.982-133.807,0C1538.172,949.966,1508.237,908.812,1508.237,908.812z"/>
			<path style="fill:#3F964F;" d="M1558.001,839.775l-20.296-0.537c-1.815-0.048-3.326,1.384-3.374,3.199l-0.114,4.309
				c-0.025,0.955,0.366,1.817,1,2.436l-1.071,40.433c-0.228,8.584-3.175,16.872-8.417,23.672l-0.266,0.346
				c-6.11,7.926-9.546,17.588-9.812,27.593l-2.143,80.886c-0.156,5.904,4.503,10.818,10.409,10.975l37.954,1.006
				c5.905,0.157,10.819-4.503,10.975-10.408l2.132-80.461c0.272-10.266-2.809-20.342-8.775-28.701
				c-5.119-7.17-7.762-15.814-7.529-24.622l1.057-39.885c0.793-0.58,1.327-1.498,1.355-2.557l0.114-4.31
				C1561.249,841.333,1559.816,839.823,1558.001,839.775z"/>
			<path style="fill:#444CC2;" d="M1726.809,884.926l-19.379-6.06c-1.732-0.542-3.577,0.423-4.118,2.156l-1.287,4.114
				c-0.285,0.912-0.144,1.85,0.297,2.617l-12.071,38.602c-2.563,8.195-7.662,15.365-14.562,20.475l-0.351,0.26
				c-8.042,5.956-13.986,14.314-16.974,23.865l-24.149,77.227c-1.763,5.639,1.377,11.639,7.016,13.4l36.236,11.332
				c5.638,1.764,11.638-1.377,13.401-7.016l24.023-76.821c3.065-9.802,2.853-20.335-0.605-30.005
				c-2.966-8.297-3.149-17.334-0.519-25.743l11.908-38.082c0.921-0.341,1.686-1.079,2.002-2.089l1.287-4.115
				C1729.507,887.312,1728.542,885.468,1726.809,884.926z"/>
			<path style="fill:#4BB35E;" d="M1664.443,899.935v-11.619h-30.497v11.619c0,6.148-2.378,12.122-6.828,16.363
				c-6.116,5.83-9.928,14.054-9.928,23.17v87.376h64.008v-87.376c0-9.116-3.81-17.342-9.927-23.17
				C1666.821,912.057,1664.443,906.083,1664.443,899.935z"/>
			<path style="fill:#7078E6;" d="M1618.217,857.766l4.286-10.8l-28.348-11.248l-4.285,10.8c-2.267,5.713-6.682,10.39-12.382,12.69
				c-7.834,3.163-14.411,9.402-17.773,17.875l-32.227,81.215l59.495,23.608l32.227-81.216c3.362-8.473,2.854-17.524-0.681-25.198
				C1615.957,869.911,1615.95,863.479,1618.217,857.766z"/>
			<path style="fill:#C4204A;" d="M1647.231,870.699l-18.582-8.183c-1.661-0.732-3.602,0.022-4.333,1.684l-1.737,3.945
				c-0.385,0.874-0.35,1.821,0.004,2.633l-16.301,37.017c-3.46,7.857-9.327,14.414-16.754,18.722l-0.377,0.219
				c-8.657,5.023-15.495,12.664-19.528,21.824l-32.611,74.052c-2.38,5.407,0.072,11.719,5.478,14.1l34.748,15.302
				c5.406,2.381,11.719-0.072,14.1-5.478l32.439-73.663c4.139-9.399,5.102-19.891,2.745-29.886
				c-2.023-8.575-1.196-17.576,2.355-25.64l16.08-36.516c0.954-0.237,1.795-0.885,2.222-1.854l1.738-3.944
				C1649.646,873.371,1648.893,871.431,1647.231,870.699z"/>
			<path style="fill:#FAD56E;" d="M1508.237,908.812c0,0,29.935,31.89,115.807,49.13c84.717,17.008,114.666,7.182,114.666,7.182
				s-13.121,69.608-35.533,140.063c-15.75,49.506-44.782,85.625-45.802,118.855c-33.901,22.807-189.867-32.885-189.867-32.885
				L1508.237,908.812z"/>
			<g>
				<g>
					<g>
						<path style="fill:#F37A50;" d="M1707.768,1028.871c-5.92,4.021-7.164,14.957-2.605,23.508
							c0.471-0.017,0.432,0.529,0.432,0.529c-0.941,0.033-1.451,0.596-2.431,1.176c-4.508,3.973-6.03,12.194-2.689,18.067
							c3.34,5.871,9.738,8.367,14.717,4.379c3.96-2.863,5.836-9.465,4.34-14.858c1.413-0.051,3.335-0.664,4.824-1.805
							c3.96-2.863,5.836-9.466,4.889-15.967c0.98-0.58,1.961-1.158,2.941-1.738c4.979-3.988,6.578-13.303,3.393-21.359
							c1.883-0.066,3.334-0.662,4.824-1.805c5.488-4.551,7.087-13.865,3.392-21.358c-3.695-7.493-11.505-9.939-17.464-5.371
							c-4.979,3.989-6.856,10.59-5.437,17.074c-1.883,0.067-3.805,0.68-5.295,1.822c-3.959,2.863-5.836,9.465-4.888,15.967
							C1709.729,1027.711,1708.748,1028.291,1707.768,1028.871z"/>
					</g>
				</g>
			</g>
			<path style="fill:#FABD6E;" d="M1622.502,987.666c0,0-44.63,5.232-82.78-24.512c4.507,23.252,26.43,42.026,38.736,76.588
				c-2.015-24.828-4.941-37.846-11.212-46.179C1582.715,996.101,1622.502,987.666,1622.502,987.666z"/>
			<path style="fill:#FABD6E;" d="M1681.198,1114.134l-32.004,62.731C1649.194,1176.865,1636.633,1139.305,1681.198,1114.134z"/>
		</g>
		<g>
			<path style="fill:#16142B;" d="M1462.347,1183.665l-158.61,107.435c0,0,102.046,274.717,170.503,364.427
				c11.917,15.616,97.273,6.338,102.185-12.366C1594.333,1574.975,1462.347,1183.665,1462.347,1183.665z"/>
			<path style="fill:#16142B;" d="M1578.146,2000h-102.34c-11.48-65.6-31.86-203.529-20.61-303.25c0.42-3.75,0.89-7.441,1.41-11.07
				c2.15-15.209,5.12-29.37,9.07-42.06v-0.01c7.57-26.559,21.92-45.619,38.02-56.57c23.29-15.849,50.26-14.729,65.7,5.131
				c2.74,3.539,5.13,7.67,7.06,12.41c0.63,7.59,1.17,15.539,1.62,23.9c0,0.021,0.01,0.04,0,0.059v0.131
				c1.24,22.64,1.85,48.279,2.08,77.84c0.02,3.38,0.04,6.811,0.06,10.291C1580.526,1786.43,1578.946,1877.13,1578.146,2000z"/>
			<path style="fill:#2C2858;" d="M1421.264,1219.684c0,0-101.5-146.968-165.923-46.21
				c-64.423,100.759-19.977,375.002,1.358,497.807c3.714,21.377,65.236,45.564,77.074,33.035
				C1376.929,1658.637,1421.264,1219.684,1421.264,1219.684z"/>
			<path style="fill:#2C2858;" d="M1340.656,2000h-131.93c2.14-72.74,10.73-252.33,44.33-349.91c3.42-9.981,7.12-19.11,11.1-27.17
				c8.63-17.19,19.59-27.76,30.9-32.74c30.8-13.58,64.18,14.33,59.97,63.141v0.01c-0.02,0.3-0.05,0.6-0.08,0.909
				C1340.886,1722.38,1381.326,1811.25,1340.656,2000z"/>
			<path style="fill:#16142B;" d="M1424.224,526.905c-33.497-58.62-160.317-42.394-169.017,28.878
				c-8.701,71.272-1.053,117.817-89.388,112.748c-70.344-4.036-137.917,63.366-131.331,161.822
				c8.427,125.96,92.438,71.108,76.363,134.678c-16.076,63.57-24.893,127.551,65.284,123.588
				c90.178-3.963,167.365-84.377,149.991-186.069c-17.375-101.692,62.877-92.407,78.576-144.32
				C1427.024,684.412,1424.224,526.905,1424.224,526.905z"/>
			<path style="fill:#DE623C;" d="M1426.715,844.437c0,0-3.451,38.322-26.011,38.322c-22.568,0-61.731-47.387-61.731-47.387
				c3.721-10.28,5.206-24.126,5.32-39.122c0.033-4.146-0.041-8.38-0.196-12.655c-1.566-42.451-11.553-88.607-11.553-88.607
				l85.083,42.623c0,0,2.619,35.697,5.23,66.708c0.318,3.827,0.645,7.588,0.962,11.203
				C1424.912,827.923,1425.941,838.595,1426.715,844.437z"/>
			<g>
				<g>
					<g>
						<path style="fill:#F5A3B7;" d="M1482.526,1120.078c3.08-47.434,54.56-119.09,37.961-168.254
							c-11.851-39.451-29.145-106.132-59.491-113.994c-12.315-3.19-19.33-11.851-36.271-12.263c0,0,3.973,41.565-16.425,41.875
							c-39.266,0.597-65.152-51.207-65.152-51.207c-20.93-3.38-91.775,14.48-96.266,32.44
							c-3.805,62.149,17.777,139.213,29.923,207.463c0.841,34.405-8.852,61.555-13.534,80.689
							c-7.564,19.769-19.227,41.376-19.56,45.735c0,0,140.914,53.9,236.331,9.164
							C1480.044,1191.726,1480.446,1152.114,1482.526,1120.078z"/>
					</g>
				</g>
			</g>
			<path style="fill:#E62552;" d="M1424.726,825.567c0,0,61.604,66.517,66.464,144.444c4.859,77.926-18.792,191.549-18.792,191.549
				l24.536-8.794c0,0,30.938-117.058,30.805-201.518c-37.013-105.172-57.148-115.199-57.148-115.199L1424.726,825.567z"/>
			<g>
				<g>
					<path style="fill:#F37A50;" d="M1332.298,665.602c-3.147,69.699,38.679,128.206,93.42,130.677
						c54.742,2.473,101.671-52.027,104.818-121.726c3.147-69.7-38.679-128.206-93.421-130.679
						C1382.374,541.402,1335.445,595.901,1332.298,665.602z"/>
					<path d="M1497.092,696.467c0.953,5.177,5.921,8.601,11.097,7.648c5.176-0.952,8.601-5.921,7.648-11.097
						c-0.953-5.176-5.921-8.601-11.097-7.647C1499.563,686.323,1496.14,691.292,1497.092,696.467z"/>
					<path d="M1427.315,680.467c1.031,5.603,6.409,9.31,12.013,8.278c5.603-1.031,9.309-6.409,8.279-12.013
						c-1.031-5.604-6.41-9.31-12.013-8.278C1429.99,669.486,1426.284,674.864,1427.315,680.467z"/>
					<path style="fill:#DE623C;" d="M1479.917,700.966c3.537,6.615,6.412,13.209,10.339,17.614c1.324,1.484,1.223,3.785-0.195,5.179
						c-5.853,5.757-18.795,8.159-26.581,9.112c-1.137,0.14-1.586-1.426-0.55-1.914c8.77-4.126,13.079-7.783,15.057-9.903
						c0.983-1.053,1.384-2.509,1.114-3.925c-0.619-3.249-1.813-9.857-2.37-15.203C1476.538,700.08,1479.041,699.33,1479.917,700.966
						z"/>
					<g>
						<path style="fill:#DE623C;" d="M1474.087,757.87c-0.68-2.759-3.48-4.451-6.24-3.77c-23.87,5.9-43.59-10.701-46.44-15.12
							c-0.62-2.179-2.64-3.771-5.03-3.73c-0.83,0.011-1.61,0.22-2.3,0.58c-1.68,0.871-2.81,2.64-2.78,4.65
							c0.05,3.299,3.62,7.18,7.32,10.321c0.78,0.669,1.56,1.289,2.32,1.879c5.66,4.37,19.09,13.01,36.55,13.01
							c4.07,0,8.37-0.47,12.83-1.58C1473.087,763.43,1474.776,760.63,1474.087,757.87z"/>
					</g>
					<g>
						<path style="fill:#201D40;" d="M1422.479,662.079c-1.874,0-3.682-1.025-4.595-2.808c-1.297-2.535-0.294-5.643,2.241-6.94
							c15.967-8.173,29.288-2.09,29.848-1.827c2.577,1.212,3.684,4.284,2.472,6.861c-1.206,2.566-4.256,3.674-6.826,2.488
							c-0.465-0.208-9.542-4.102-20.795,1.658C1424.072,661.896,1423.269,662.079,1422.479,662.079z"/>
					</g>
					<g>
						<path style="fill:#201D40;" d="M1522.652,690.887c-2.227,0-4.282-1.455-4.944-3.699c-2.094-7.102-8.313-8.979-8.577-9.055
							c-2.753-0.728-4.368-3.543-3.641-6.296c0.728-2.753,3.579-4.388,6.332-3.661c0.488,0.13,12.007,3.311,15.777,16.094
							c0.806,2.731-0.756,5.6-3.487,6.405C1523.626,690.818,1523.135,690.887,1522.652,690.887z"/>
					</g>
				</g>
				<path style="fill:#201D40;" d="M1328.597,685.211c40.326,5.972,85.31-39.009,114.172-58.03
					c31.634-2.091,62.799-25.306,68.713-36.229c-0.778-41.794-24.126-65.081-109.527-64.642
					C1349.347,526.58,1259.935,593.86,1328.597,685.211z"/>
				<path style="fill:#201D40;" d="M1413.805,620.895c0,0,81.879,17.525,116.733,53.657c41.309-31.517,13.679-71.589-20.743-94.742
					C1479.986,582.101,1413.805,620.895,1413.805,620.895z"/>
				<g>
					<path style="fill:#F37A50;" d="M1356.823,673.106c9.659,13.264,8.691,30.423-2.163,38.326
						c-10.854,7.905-27.482,3.561-37.141-9.701c-9.659-13.262-8.69-30.421,2.163-38.325
						C1330.536,655.501,1347.164,659.845,1356.823,673.106z"/>
					<g>
						<path style="fill:#DE623C;" d="M1340.24,704.081c0.531-0.098,1.048-0.317,1.508-0.664c6.607-4.981,9.112-11.995,6.699-18.761
							c-2.47-6.928-9.369-11.758-16.403-11.482c-1.98,0.078-3.522,1.744-3.444,3.723c0.077,1.982,1.744,3.522,3.724,3.445
							c3.853-0.15,7.967,2.803,9.365,6.724c1.343,3.765-0.17,7.538-4.261,10.622c-1.582,1.193-1.897,3.442-0.704,5.024
							C1337.57,703.834,1338.947,704.321,1340.24,704.081z"/>
					</g>
				</g>
			</g>
			<path style="fill:#E62552;" d="M1271.354,829.765c0,0,52.107-18.863,72.163-17.029c18.666,45.608,38.531,76.739,42.917,148.597
				c4.386,71.856-13.427,100.079,1.93,205.692c-42.314,9.033-119.234,8.104-162.313-24.553
				c21.539-43.08,23.764-50.133,23.069-117.719C1248.424,957.167,1271.354,829.765,1271.354,829.765z"/>
			<path style="fill:#C4204A;" d="M1240.681,849.95c-38.513,60.143-47.762,251.257-1.335,316.007
				c46.186,0.89,91.659-41.033,91.659-41.033s-14.578-159.565-7.507-204.294c2.849-18.023,14.732-65.983-7.864-79.98
				C1281.302,819.382,1250.265,834.984,1240.681,849.95z"/>
			<g>
				<g>
					<path style="fill:#3F964F;" d="M1617.555,1148.946L1617.555,1148.946c-2.042-9.612-0.897-19.628,3.263-28.532l21.457-45.924
						l-24.786-11.58l-21.628,46.293c-4.054,8.676-10.758,15.84-19.146,20.461l-0.426,0.234c-9.778,5.386-17.592,13.736-22.318,23.85
						l-47.112,99.219c-2.789,5.969-0.211,13.07,5.758,15.857l38.366,17.926c5.969,2.789,13.069,0.212,15.858-5.758l46.912-98.789
						C1618.601,1171.826,1619.936,1160.15,1617.555,1148.946z"/>
					<path style="fill:#3F964F;" d="M1637.305,1079.855l-20.517-9.588c-1.834-0.856-2.627-3.039-1.77-4.873l2.036-4.356
						c0.857-1.836,3.039-2.628,4.873-1.771l20.518,9.588c1.834,0.857,2.626,3.039,1.769,4.873l-2.035,4.355
						C1641.322,1079.92,1639.14,1080.711,1637.305,1079.855z"/>
				</g>
				<path style="fill:#F37A50;" d="M1498.638,1186.791c0,0-159.735-50-189.288-62.209c-30.936-12.779-55.226,30.373-62.44,61.617
					c89.466,32.086,165.243,37.314,246.235,33.678C1494.317,1201.474,1498.638,1186.791,1498.638,1186.791z"/>
				<g>
					<path style="fill:#F37A50;" d="M1489.724,1219.129c3.673-11.641-0.601-23.955,5.211-31.395
						c3.487-4.465,14.086-4.445,22.467-9.115c8.126-4.521,10.067-14.469,19.978-19.887c8.604-4.704,12.845-4.961,15.227-2.115
						l-10.108,21.289c-1.135,6.33,4.363,14.695,29.394,23.701c19.135,6.885,35.797,4.655,34.705,15.762
						c-0.716,7.291-10.847,3.67-24.208-0.514c14.847,9.305,18.943,3.561,19.079,12.74c0.166,11.092-25.356,2.566-36.975-3.424
						c13.562,14.012,29.204,7.932,29.262,15.119c-0.36,8.105-15.461,12.159-33.096-0.861c13.709,14.19,23.275,8.973,21.747,15.731
						c-1.588,7.023-30.645,7.139-56.17-8.76C1519.667,1243.309,1489.724,1219.129,1489.724,1219.129z"/>
				</g>
			</g>
			<path style="fill:#E64369;" d="M1329.334,1105.411c5.473-2.04,0.36,10.354,4.125,15.927c3.764,5.574,10.67,7.182,5.031,12.334
				c-5.638,5.152-48.726,55.223-97.582,50.34c-7.207-6.695-28.211-33.828-22.946-57.521
				C1242.513,1133.674,1329.334,1105.411,1329.334,1105.411z"/>
			<path style="fill:#C4204A;" d="M1344.278,797.303l-30.624,18.517l29.765,60.219l34.048,24.825
				C1377.467,900.864,1361.968,843.143,1344.278,797.303z"/>
			<polygon style="fill:#C4204A;" points="1423.505,811.94 1454.282,829.947 1476.769,869.579 1472.397,899.245 1424.726,825.567 
							"/>
		</g>
	</g>
	<g>
		<path style="fill:#444CC2;" d="M1804.317,1315.209l-1.76,22.592l-50.93,653.549c0,3.311-1.631,6.34-4.321,8.65h-419.75
			c-2.69-2.311-4.32-5.34-4.32-8.65l-20.16-286.939l-8.02-114.231l-17.73-252.379l-2.2-31.321c0-7.191,27.21-35.12,36.66-35.12
			l20.94,0.1h0.01l82.88,0.421l75.46,0.38l29.18,0.141h0.01l50.53,0.25l199.16,1
			C1790.567,1266.779,1804.317,1308.01,1804.317,1315.209z"/>
		<path style="fill:#7078E6;" d="M1828.37,1271.361h-584.167c-9.45,0-17.181,5.605-17.181,12.457v41.521
			c0,6.85,7.732,12.456,17.181,12.456h584.167c9.45,0,17.182-5.606,17.182-12.456v-41.521
			C1845.552,1276.967,1837.82,1271.361,1828.37,1271.361z"/>
		<g>
			<g>
				<path style="fill:#7078E6;" d="M1542.834,1600.278h-6.222c-26.234,0-47.502-21.267-47.502-47.501v-68.632h101.225v68.632
					C1590.335,1579.012,1569.068,1600.278,1542.834,1600.278z"/>
				<rect x="1531.288" y="1578.586" style="fill:#7078E6;" width="16.871" height="99.68"/>
				<path style="fill:#7078E6;" d="M1572.692,1678.443c0-10.74-14.761-19.448-32.97-19.448s-32.969,8.708-32.969,19.448H1572.692z"
					/>
			</g>
			<g>
				<path style="fill:#7078E6;" d="M1539.726,1415.859c-1.88,0-3.75,0.03-5.61,0.1c-62.88,2.28-116.21,42.631-137.57,98.631
					c-6.47,16.93-10.01,35.29-10.01,54.461c0,53.25,27.31,100.238,68.66,127.699c24.24,16.1,53.31,25.489,84.53,25.489
					c14.01,0,27.59-1.89,40.49-5.439c64.89-17.791,112.7-77.291,112.7-147.75C1692.916,1484.58,1624.196,1415.859,1539.726,1415.859
					z M1580.156,1706.51c-12.83,3.779-26.4,5.811-40.43,5.811c-30.96,0-59.66-9.871-83.12-26.641
					c-36.39-26-60.16-68.59-60.16-116.629c0-14.441,2.15-28.391,6.14-41.541c17.59-57.939,70.97-100.459,134.28-101.7
					c0.95-0.021,1.9-0.03,2.86-0.03c79,0,143.27,64.271,143.27,143.271C1682.996,1634.02,1639.536,1689.02,1580.156,1706.51z"/>
			</g>
		</g>
	</g>
</g>
<g>
	<g id="c_8_">
		<path style="fill:#C4204A;" d="M2880.311,780.001c0,0-135.148,65.7-164.533,189.352c26.681,51.108,160.09,45.719,160.09,45.719
			L2880.311,780.001z"/>
		<path style="fill:#2C2858;" d="M2911.563,1190.141l188.269,98.914c0,0-153.574,289.729-241.834,379.438
			c-15.363,15.616-103.396-8.674-109.729-27.379C2725.182,1572.929,2911.563,1190.141,2911.563,1190.141z"/>
		<path style="fill:#2C2858;" d="M2873.316,2000h-116.27c-1.181-139.971-8.101-231.37-10.551-300.191
			c-0.14-4.101-0.27-8.12-0.39-12.059c-0.61-21.971-0.681-41.631,0.2-59.91c0-0.01,0-0.01,0-0.02v-0.02
			c0.3-6.291,0.709-12.4,1.25-18.4c0-0.021,0-0.051,0.01-0.07c0-0.029,0-0.051,0.01-0.08c0-0.021,0-0.05,0.01-0.07
			c0.18-2.24,0.4-4.45,0.641-6.65c0.17-0.329,0.35-0.64,0.529-0.959c0.01,0,0.01-0.011,0.01-0.011v-0.009
			c0.131-0.262,0.271-0.512,0.421-0.771c4.6-8.199,10.47-14.77,17.18-19.66c2.19-1.619,4.479-3.039,6.83-4.279
			c15.979-8.439,35.319-8.59,53.25,0c5.47,2.609,10.81,6.05,15.88,10.311c4.82,4.05,9.41,8.85,13.62,14.409
			c2.431,3.191,4.729,6.62,6.89,10.31c2.601,4.44,5,9.25,7.15,14.42c0.72,1.711,1.41,3.471,2.07,5.271
			c0.449,1.649,0.89,3.33,1.32,5.03c0.959,3.84,1.869,7.779,2.719,11.85v0.01c0.141,0.66,0.271,1.33,0.41,2
			c3.141,15.49,5.461,32.471,7.11,50.391c0.32,3.43,0.61,6.89,0.88,10.39C2892.246,1812.38,2880.276,1939.309,2873.316,2000z"/>
		<path style="fill:#494C7F;" d="M2953.105,1234.854l225.358-54.565c0,0,9.517,366.141-17.988,488.945
			c-4.788,21.378-84.104,45.565-99.368,33.035C3005.469,1656.592,2953.105,1234.854,2953.105,1234.854z"/>
		<path style="fill:#494C7F;" d="M3226.187,2000h-100.8c-37.4-116.041-55.83-190.07-68.291-245.42
			c-9.289-41.301-15.25-72.2-23.279-102.38c-0.02-0.161-0.04-0.311-0.051-0.471v-0.009c-3.719-31.831,13.131-54.841,36.291-63.371
			c25.64-9.449,59.01-1.16,80.8,32.53c4.93,7.739,9.54,16.409,13.85,25.841v0.009C3211.426,1748.729,3223.467,1939,3226.187,2000z"
			/>
		<g>
			<polygon id="v-2_2_" style="fill:#DE623C;" points="3037.146,673.758 3037.096,673.758 2995.043,673.914 2985.52,773.238 
				3034.609,799.158 3086.957,773.53 3086.957,659.762 			"/>
			<g>
				<g>
					<path style="fill:#16142B;" d="M3035.505,678.514c38.132,4.846,58.483-43.736,58.483-43.736
						c23.412-3.672,19.66-26.986,19.66-26.986c11.119-3.31,25.995-15.097,21.41-36.301c-3.883-17.954-21.465-17.254-23.556-38.262
						c-1.679-16.855,10.746-58.033-42.983-61.662c0,0-1.068-31.313-33.296-39.055c-39.511-9.491-49.492,14.22-66.878,18.35
						c-19.418,4.613-60.949-13.547-66.742,31.274c0,0-27.676,0.423-40.557,20.459c-12.002,18.667-5.246,42.7,2.648,51.58
						c0,0-22.246,7.38-27.513,28.358c-3.532,14.065,1.815,32.321,15.779,41.272c8.885,5.695,17.362,6.285,17.362,6.285
						c9.051,1.551,9.426,25.821,17.371,30.575c12.754,7.629,26.632,13.052,40.752,17.37L3035.505,678.514z"/>
					<path style="fill:#F37A50;" d="M3095.094,610.407c7.83,69.22-37.317,136.588-91.684,142.736
						c-54.365,6.149-97.363-51.247-105.193-120.469c-7.828-69.221,29.896-130.32,84.263-136.469
						C3036.846,490.056,3087.265,541.187,3095.094,610.407z"/>
					<path d="M2931.106,651.332c-0.601,5.221-5.319,8.966-10.54,8.367c-5.221-0.6-8.966-5.32-8.365-10.54
						c0.6-5.221,5.318-8.966,10.539-8.366C2927.961,641.393,2931.707,646.113,2931.106,651.332z"/>
					<path d="M3003.186,637.282c-0.648,5.652-5.758,9.706-11.408,9.057c-5.651-0.65-9.707-5.758-9.057-11.41
						c0.65-5.65,5.758-9.706,11.409-9.057C2999.781,626.522,3003.836,631.63,3003.186,637.282z"/>
					<path style="fill:#DE623C;" d="M2960.77,646.879c-6.529,15.026-14.902,33.418-14.902,33.418s7.197,13.737,26.344,11.079
						c-8.594-2.134-17.409-6.381-15.727-17.661C2958.167,662.436,2960.77,646.879,2960.77,646.879z"/>
					<g>
						<path style="fill:#16142B;" d="M3014.256,620.023c0.283-0.23,0.545-0.497,0.776-0.799c1.595-2.081,1.202-5.061-0.88-6.657
							c-5.681-4.356-19.405-10.195-30.686-1.116c-2.033,1.686-2.365,4.631-0.722,6.674c1.644,2.042,4.632,2.366,6.675,0.722
							c8.354-6.722,18.851,1.175,18.955,1.257C3010.154,621.466,3012.59,621.378,3014.256,620.023z"/>
					</g>
					<g>
						<path style="fill:#16142B;" d="M2927.766,632.581c0.598-0.32,1.121-0.802,1.501-1.424c1.138-1.865,0.546-4.3-1.319-5.438
							c-0.293-0.178-7.254-4.339-14.863-1.898c-5.197,1.666-9.251,5.841-12.049,12.408c-0.856,2.01,0.079,4.334,2.089,5.19
							c2.011,0.857,4.335-0.078,5.19-2.088c1.857-4.358,4.275-7.043,7.186-7.976c4.136-1.326,8.289,1.097,8.329,1.122
							C2925.072,633.234,2926.568,633.226,2927.766,632.581z"/>
					</g>
					<path style="fill:#16142B;" d="M2870.988,566.501l104.44-93.084l132.574,67.953l-16.597,95.688
						c-3.281-44.231-30.407-30.023-44.378-42.98c-14.162-13.137-20.294-33.619-53.715-15.599c0,0-27.058-18.708-41.013,7.551
						c-10.791,20.304-25.385,16.375-39.934,17.411c-17.16,1.223-13.107,17.901-23.59,17.341L2870.988,566.501z"/>
					<g>
						<path style="fill:#F37A50;" d="M3079.061,607.25c-8.78,13.829-6.725,30.866,4.592,38.051
							c11.318,7.186,27.61,1.801,36.391-12.028c8.781-13.83,6.726-30.866-4.592-38.051
							C3104.135,588.035,3087.842,593.421,3079.061,607.25z"/>
						<g>
							<path style="fill:#DE623C;" d="M3097.555,637.06c-0.535-0.064-1.064-0.25-1.545-0.566c-6.9-4.544-9.842-11.373-7.868-18.268
								c2.021-7.061,8.587-12.311,15.614-12.485c1.978-0.048,3.619,1.515,3.668,3.492c0.049,1.977-1.514,3.62-3.492,3.669
								c-3.849,0.094-7.76,3.298-8.904,7.294c-1.098,3.838,0.65,7.501,4.922,10.315c1.652,1.088,2.109,3.31,1.021,4.961
								C3100.199,636.643,3098.857,637.214,3097.555,637.06z"/>
						</g>
					</g>
					<g>
						<path style="fill:#DE623C;" d="M2970.861,721.447c-2.811,0-5.748-0.206-8.811-0.659c-2.563-0.377-4.332-2.76-3.954-5.322
							c0.378-2.561,2.759-4.331,5.322-3.954c29.034,4.283,44.624-17.865,45.272-18.809c1.463-2.129,4.377-2.68,6.512-1.223
							c2.133,1.457,2.689,4.36,1.239,6.499C3015.734,699.023,3000.151,721.447,2970.861,721.447z"/>
					</g>
				</g>
			</g>
		</g>
		<g id="v_1_">
			<path style="fill:#E62552;" d="M3207.02,1240.193c0,0-88.004,9.078-170.472,9.627c-82.468-0.607-170.472-16.607-170.472-16.607
				s11.082-151.45,9.953-209.611c-1.605-66.784,4.281-155.34,4.281-243.601c0,0,58.494-9.418,91.493-13.483
				c5.363-0.667,10.049-1.178,13.712-1.499c0,0,18.801,39.445,100.721,0c4.305-0.428,9.633-0.405,15.59-0.06
				c34.414,2.057,89.842,15.042,89.842,15.042c0,88.022,3.555,174.284,2.366,241.079
				C3197.697,1080.656,3207.02,1240.193,3207.02,1240.193z"/>
		</g>
		<g>
			
				<rect x="2870.357" y="810.678" transform="matrix(0.9982 0.0602 -0.0602 0.9982 59.8409 -177.8293)" style="fill:#3F964F;" width="219.565" height="186.356"/>
			
				<rect x="2968.434" y="836.835" transform="matrix(0.9415 0.3371 -0.3371 0.9415 471.1888 -971.7103)" style="fill:#FFFFFF;" width="130.885" height="68.431"/>
			<polygon style="fill:#B8C9FF;" points="2954.141,1000.597 2845.979,1011.429 2828.316,835.07 2953.869,847.655 			"/>
			
				<rect x="2819.129" y="859.949" transform="matrix(0.995 -0.0997 0.0997 0.995 -80.1259 291.1349)" style="fill:#4BB35E;" width="109.9" height="175.293"/>
			<polygon style="fill:#444CC2;" points="3086.706,1124.504 2868.946,1195.823 2797.175,905.64 3014.936,834.32 			"/>
			
				<rect x="2851.423" y="869.505" transform="matrix(0.9689 -0.2474 0.2474 0.9689 -159.7867 766.3992)" style="fill:#B8C9FF;" width="236.171" height="298.929"/>
			
				<rect x="2864.71" y="894.503" transform="matrix(0.9999 -0.0139 0.0139 0.9999 -14.2248 41.5704)" style="fill:#FFFFFF;" width="241.863" height="300.719"/>
			
				<rect x="2820.401" y="883.905" transform="matrix(0.9861 -0.1664 0.1664 0.9861 -130.9921 503.4117)" style="fill:#7078E6;" width="236.17" height="298.927"/>
			<polygon style="fill:#FFFFFF;" points="2891.229,884.471 2960.334,837.354 2971.464,865.227 			"/>
			<polygon style="fill:#E3EAFF;" points="2920.402,1187.998 2932.651,1219.361 3016.297,1171.814 			"/>
		</g>
		<path style="fill:#C4204A;" d="M3101.826,764.959v0.012c-5.697,9.514-13.762,16.709-25.129,22.429
			c-18.004,9.085-42.475,12.936-57.541,11.759c-11.928-0.938-25.158-5.806-33.637-12.524c-9.002-7.147-12.918-16.253-13.716-20.118
			c5.363-0.667,10.871-1.497,14.534-1.819c0,0,17.979,39.765,99.898,0.32C3090.541,764.59,3095.869,764.614,3101.826,764.959z"/>
		<g id="c_1_">
			<g>
				<g>
					<path style="fill:#F37A50;" d="M2964.338,1010.42c8.051-18.534,15.543-20.414,15.543-46.89
						c0-12.189-11.018-26.152-15.577-36.914c-7.038-16.608-15.646-29.56-19.438-28.954c-8.59,1.368-9.574,6.74-7.153,17.198
						c1.87,8.086,10.099,16.712,6.257,23.141c-3.41,5.715-9.402,10.802-33.483-2.534c-30.749-17.028-38.647-28.335-45.333-18.918
						c-4.39,6.181,10.242,15.887,38.92,32.583c-17.911-2.81-50.088-34.382-57.311-20.327c-5.246,10.209,42.871,32.858,56.014,36.066
						c-25.29-0.467-52.836-27.007-57.76-21.432c-9.723,12.197,28.465,33.371,51.076,35.171c-22.12,4.1-36.252-12.711-40.17-6.706
						c-7.303,11.202,35.04,31.906,62.005,34.309C2925.903,1006.93,2964.338,1010.42,2964.338,1010.42z"/>
				</g>
				<polygon style="fill:#F37A50;" points="3003.895,1020.461 2964.516,1010.42 2976.106,958.729 3016.229,971.134 				"/>
			</g>
			<path id="c_2_" style="fill:#C4204A;" d="M3174.807,1001.051c-75.254-23.244-176.666-46.125-176.666-46.125
				c-19.184,27.288-15.445,64.555-15.445,64.555c108.086,87.334,257.365,117.203,305.221,95.334
				c43.688-19.964,13.444-273.89-96.25-334.813l-3.803,0.357C3150.258,843.992,3174.807,1001.051,3174.807,1001.051z"/>
		</g>
		<g>
			<g>
				<path style="fill:#F37A50;" d="M2856.305,1122.225c8.312-18.42,4.666-25.23,24.268-43.027
					c9.025-8.193,26.769-9.422,37.801-13.281c17.027-5.952,32.402-8.286,34.504-5.071c4.761,7.278,1.445,11.618-7.925,16.856
					c-7.243,4.051-19.161,3.758-21.339,10.924c-1.938,6.366-1.677,14.222,24.385,23.086c33.276,11.319,46.957,9.565,44.479,20.847
					c-1.625,7.404-18.646,3.097-50.285-6.914c14.121,11.372,59.125,13.972,53.574,28.768c-4.032,10.747-53.146-9.653-64.354-17.228
					c17.346,18.41,55.512,20.965,54.693,28.357c-2.495,15.398-43.841,1.357-60.373-14.172c11.833,19.133,33.78,18.295,31.968,25.231
					c-3.386,12.937-47.176-4.495-67.081-22.844C2884.725,1148.333,2856.305,1122.225,2856.305,1122.225z"/>
			</g>
			<polygon style="fill:#F37A50;" points="2822.281,1099.688 2856.186,1122.093 2886.664,1078.764 2850.51,1057.396 			"/>
		</g>
		<path style="fill:#C4204A;" d="M2715.777,969.353c0,0,38.854,111.629,127.684,158.364c6.276-19.053,27.527-68.32,27.527-68.32
			s-37.248-44.324-61.428-80.371C2794.947,976.517,2715.777,969.353,2715.777,969.353z"/>
	</g>
	<g>
		<path style="fill:#0E6A41;" d="M3034.646,2000c2.49-2.271,3.98-5.18,3.98-8.351l18.469-237.069l4.08-52.26l8.881-113.971
			l19.5-250.25l1.76-22.59c0-1.43-0.54-4.21-1.58-7.689c-4.16-14-16.27-39.361-32.79-33.861l-98.72-0.49l-85.551-0.43h-0.01
			l-273.89-1.369c-9.45,0-36.649,27.92-36.649,35.119l2.199,31.311l45.91,653.55c0,3.171,1.5,6.091,3.99,8.351h142.82h116.27
			H3034.646z"/>
		<path style="fill:#3F964F;" d="M3115.366,1271.667h-584.167c-9.45,0-17.182,5.606-17.182,12.457v41.521
			c0,6.851,7.731,12.458,17.182,12.458h584.167c9.45,0,17.182-5.607,17.182-12.458v-41.521
			C3132.548,1277.273,3124.816,1271.667,3115.366,1271.667z"/>
		<g>
			<path style="fill:#3F964F;" d="M2969.797,1514.619c-22.08-57.52-77.891-98.449-143.08-98.449c-5.621,0-11.17,0.301-16.631,0.9
				c-76.68,8.309-136.56,73.439-136.56,152.279c0,55.08,29.22,103.46,72.97,130.46c23.34,14.411,50.82,22.729,80.221,22.729
				c20.43,0,39.939-4.019,57.779-11.309c55.91-22.85,95.41-77.84,95.41-141.88
				C2979.906,1550.08,2976.326,1531.619,2969.797,1514.619z M2883.616,1700.84c-17.45,7.59-36.69,11.79-56.899,11.79
				c-29.871,0-57.631-9.19-80.61-24.88c-37.8-25.83-62.66-69.26-62.66-118.4c0-71.9,53.24-131.6,122.37-141.75
				c6.82-1,13.8-1.52,20.9-1.52c63.64,0,117.72,41.709,136.34,99.229c4.5,13.88,6.93,28.681,6.93,44.04
				C2969.986,1628.15,2934.387,1678.789,2883.616,1700.84z"/>
		</g>
		<g>
			<polygon style="fill:#3F964F;" points="2904.256,1650.447 2749.183,1650.447 2749.183,1512.974 2782.639,1474.226 
				2904.256,1474.226 			"/>
			<polygon style="fill:#4BB35E;" points="2749.183,1512.974 2782.639,1474.226 2788.323,1512.974 			"/>
			<g>
				<rect x="2793.861" y="1502.665" style="fill:#4BB35E;" width="93.215" height="10.309"/>
				<rect x="2766.361" y="1576.838" style="fill:#4BB35E;" width="120.715" height="10.308"/>
				<rect x="2793.861" y="1626.285" style="fill:#4BB35E;" width="93.215" height="10.309"/>
				<rect x="2766.361" y="1552.113" style="fill:#4BB35E;" width="39.707" height="10.309"/>
				<rect x="2766.361" y="1601.562" style="fill:#4BB35E;" width="61.375" height="10.308"/>
				<rect x="2832.597" y="1601.562" style="fill:#4BB35E;" width="53.876" height="10.308"/>
				<rect x="2810.307" y="1552.113" style="fill:#4BB35E;" width="76.77" height="10.309"/>
				<rect x="2766.361" y="1527.389" style="fill:#4BB35E;" width="71.445" height="10.309"/>
				<rect x="2842.949" y="1527.389" style="fill:#4BB35E;" width="44.127" height="10.309"/>
			</g>
		</g>
	</g>
</g>
<g>
	<g>
		<polygon style="fill:#F37A50;" points="867.796,1157.279 847.123,1150.416 857.555,1104.124 890.836,1115.67 		"/>
		<path style="fill:#30357F;" d="M855.197,1155.846c-36.113-0.713-198.917-23.568-238.314-62.167
			c16.733-29.46,30.447-64.989,63.21-61.228c54.371,4.906,191.441,70.69,191.441,70.69L855.197,1155.846z"/>
		<path style="fill:#30357F;" d="M679.975,820.663c0,0-80.356,40.571-85.458,114.275c-3.242,46.842-3.982,120.207,21.257,153.57
			c14.475,19.133,55.876-24.74,74.901-24.945C718.979,933.551,699.467,859.155,679.975,820.663z"/>
		<g>
			<path style="fill:#F37A50;" d="M934.119,1124.396c-8.148-2.543-32.76-13.598-47.556-8.867
				c-8.877,2.838-14.825,15.711-17.132,25.517c-14.969,12.244,6.433,51.668,6.433,51.668l55.1-41.021L934.119,1124.396z"/>
			<g>
				<g>
					<path style="fill:#3F964F;" d="M1043.791,1110.453l11.153,24.053c0.907,1.955,0.056,4.276-1.9,5.184l-19.035,8.826
						l-14.437-31.137l19.036-8.826C1040.563,1107.646,1042.884,1108.496,1043.791,1110.453z"/>
					<path style="fill:#FFFFFF;" d="M822.984,1183.548c0,0,133.868-65.044,144.971-66.038c3.937-0.353,7.49-0.377,11.774-0.081
						l39.843-0.05l14.437,31.137l-25.789,30.362c-2.543,3.46-4.856,6.157-7.669,8.935c-7.933,7.83-144.009,68.13-144.009,68.13
						c-5.216,2.418-11.405,0.151-13.823-5.065c0,0-6.939-21.159-10.039-27.848c-3.1-6.688-14.761-25.658-14.761-25.658
						C815.5,1192.154,817.768,1185.967,822.984,1183.548z"/>
				</g>
			</g>
			<g>
				<g>
					<g>
						<path style="fill:#F37A50;" d="M928.135,1200.884c-6.892-1.929-16.051,4.173-19.645,13.173
							c0.317,0.35-0.126,0.672-0.126,0.672c-0.632-0.698-1.391-0.725-2.466-1.1c-5.943-0.883-13.208,3.258-15.541,9.598
							c-2.332,6.341-0.112,12.84,6.147,14.07c4.742,1.18,10.997-1.644,14.153-6.267c0.949,1.046,2.657,2.12,4.491,2.523
							c4.742,1.178,10.997-1.646,15.354-6.565c1.075,0.375,2.15,0.751,3.225,1.126c6.259,1.231,14.409-3.554,18.509-11.185
							c1.266,1.396,2.657,2.12,4.491,2.521c7.018,1.258,15.167-3.527,18.509-11.184c3.343-7.657,0.173-15.202-7.161-16.81
							c-6.26-1.231-12.515,1.594-16.555,6.859c-1.266-1.395-2.974-2.469-4.808-2.87c-4.742-1.179-10.997,1.646-15.354,6.563
							C930.286,1201.635,929.211,1201.26,928.135,1200.884z"/>
					</g>
				</g>
			</g>
			<path style="fill:#F37A50;" d="M934.595,1124.513c-6.574-1.239-13.483,6.138-15.432,16.478
				c-1.948,10.338,1.802,19.724,8.377,20.963c6.574,1.238,13.483-6.139,15.432-16.477
				C944.919,1135.139,941.169,1125.752,934.595,1124.513z"/>
		</g>
		<path style="fill:#3C3F73;" d="M560.858,1225.572l-188.268,98.912c0,0,153.574,289.729,241.833,379.44
			c15.364,15.615,103.396-8.675,109.73-27.379C747.24,1608.359,560.858,1225.572,560.858,1225.572z"/>
		<path style="fill:#3C3F73;" d="M715.817,2000h-120.5c-8.39-84.73-17.77-226.25,1-316.131v-0.01
			c1.23-5.859,2.57-11.479,4.04-16.869c7.23-19.65,17.81-34.451,29.91-44.551c31.84-26.6,74.18-20.71,93.39,14.54
			c0.19,0.321,0.37,0.65,0.54,0.979c0.24,2.28,0.47,4.58,0.68,6.9c0.01,0.061,0.01,0.12,0.02,0.18
			c0.52,5.941,0.92,11.99,1.22,18.211v0.01c0,0.01,0,0.01,0,0.02C729.546,1735.18,718.546,1828.209,715.817,2000z"/>
		<path style="fill:#494C7F;" d="M519.315,1270.285l-225.358-54.566c0,0-9.517,366.143,17.989,488.947
			c4.788,21.377,84.105,45.564,99.368,33.034C466.953,1692.021,519.315,1270.285,519.315,1270.285z"/>
		<path style="fill:#494C7F;" d="M438.656,1687.16c-0.01,0.149-0.03,0.311-0.05,0.47c-17.64,66.35-25.33,136.18-80.32,312.37
			h-110.12c5.18-80.65,19.84-231.141,59.54-317.85c4.32-9.43,8.93-18.1,13.86-25.841
			C363.046,1592.18,446.496,1620.09,438.656,1687.16z"/>
		<g id="v_2_">
			<path id="h-5_1_" style="fill:#2C2858;" d="M445.039,770.096l172.023,25.053l62.913,25.514
				c3.535,99.626-73.33,454.974-73.33,454.974s-111.258,41.467-177.124,42.082c-90.375,0.846-159.497-48.219-159.497-48.219
				c-3.342-105.391,22.355-235.795,66.833-368.157C353.851,850.771,398.747,788.291,445.039,770.096z"/>
		</g>
		<g>
			<path id="v-2_1_" style="fill:#DE623C;" d="M555.599,701.402l0.05,0.004l41.518,3.468l1.577,98.844
				c0,0-0.563,23.424-43.141,26.762c-36.565,2.869-57.063-34.47-57.063-34.47l16.208-97.715L555.599,701.402z"/>
			<g>
				<path style="fill:#F37A50;" d="M506.018,625.17c-4.284,71.819,29.905,132.062,86.311,135.427
					c56.405,3.363,105.604-52.128,109.887-123.947c4.284-71.818-37.97-132.764-94.375-136.129
					C551.434,497.158,510.301,553.354,506.018,625.17z"/>
				<path style="fill:#DE623C;" d="M632.524,648.615c7.557,15.138,17.199,33.648,17.199,33.648s-6.671,14.562-26.562,12.868
					c8.745-2.671,17.604-7.534,15.251-19.074C636.06,664.518,632.524,648.615,632.524,648.615z"/>
				<path style="fill:#181B47;" d="M486.19,563.781c6.978-67.866,72.568-77.872,72.568-77.872s-12.801-7.496-5.557-27.018
					c8.536,7.837,19.858,12.893,31.394,13.969c77.735,7.241,123.31,29.099,109.923,57.517c-4.764,10.114,43.652,25.163,7.925,91.468
					c-3.099-9.25-1.268-41.354-14.762-51.122c-13.542-9.802-9.447,16.322-42.397,5.994c-33.247-10.422-52.637-28.818-80.006-20.195
					c-22.161,8.326-62.679,84.742-62.625,90.514C502.529,633.798,483.124,593.604,486.19,563.781z"/>
				<path style="fill:#181B47;" d="M695.338,674.977c0,0-13.878,36.788-24.156,45.343c1.377-16.729-36.551-13.394-52.43-15.054
					c-28.754-3.004-52.587-33.663-69.315,1.622c-48.466-4.382-34.138-86.702-34.138-86.702
					c-19.415,61.376-14.24,148.251,79.066,165.795C654.448,797.281,694.534,734.787,695.338,674.977z"/>
				<g>
					<path style="fill:#181B47;" d="M693.641,639.151c-1.665-0.208-3.18-1.264-3.897-2.913c-1.977-4.541-4.696-7.454-8.081-8.661
						c-5.848-2.084-12.31,1.186-12.375,1.219c-2.403,1.237-5.365,0.307-6.615-2.089s-0.342-5.346,2.046-6.609
						c0.413-0.217,10.202-5.293,20.134-1.814c6.098,2.137,10.773,6.856,13.896,14.029c1.084,2.487-0.055,5.382-2.542,6.466
						C695.37,639.146,694.486,639.257,693.641,639.151z"/>
				</g>
				<g>
					<path style="fill:#181B47;" d="M578.6,618.5c-1.059-0.202-2.058-0.752-2.812-1.635c-1.761-2.061-1.517-5.163,0.546-6.925
						c7.853-6.705,15.694-9.673,23.306-8.822c9.822,1.097,15.335,8.337,15.565,8.646c1.624,2.173,1.177,5.25-0.996,6.874
						c-2.163,1.615-5.22,1.182-6.85-0.962c-0.119-0.149-3.435-4.248-8.934-4.807c-4.772-0.485-10.058,1.717-15.712,6.544
						C581.533,618.418,580.014,618.769,578.6,618.5z"/>
				</g>
				<g>
					<path style="fill:#F37A50;" d="M514.315,620.333c9.813,13.782,8.626,31.463-2.652,39.494
						c-11.278,8.031-28.376,3.37-38.189-10.411c-9.813-13.782-8.625-31.464,2.652-39.495
						C487.404,601.891,504.501,606.552,514.315,620.333z"/>
					<g>
						<path style="fill:#DE623C;" d="M496.875,652.09c0.549-0.095,1.084-0.315,1.562-0.667c6.868-5.066,9.527-12.27,7.114-19.272
							c-2.471-7.172-9.531-12.226-16.786-12.021c-2.043,0.059-3.651,1.761-3.593,3.802c0.058,2.042,1.76,3.651,3.802,3.594
							c3.975-0.113,8.184,2.977,9.582,7.035c1.344,3.898-0.259,7.771-4.51,10.907c-1.645,1.213-1.995,3.528-0.782,5.173
							C494.125,651.806,495.539,652.321,496.875,652.09z"/>
					</g>
				</g>
				<path d="M607.233,644.916c4.051-4.338,3.817-11.14-0.522-15.19c-4.339-4.051-11.141-3.817-15.191,0.522
					c-4.051,4.339-3.816,11.14,0.522,15.191C596.381,649.49,603.183,649.255,607.233,644.916z"/>
				<path d="M667.552,655.909c3.983,3.717,10.225,3.502,13.943-0.48c3.718-3.982,3.503-10.225-0.48-13.942
					c-3.982-3.717-10.225-3.503-13.942,0.48C663.355,645.949,663.57,652.19,667.552,655.909z"/>
			</g>
		</g>
		<g>
			<g>
				<g>
					<path style="fill:#E62552;" d="M548.9,998.633l19.181,18.303c1.56,1.488,1.618,3.959,0.129,5.52l-14.485,15.18l-24.829-23.693
						l14.485-15.179C544.87,997.203,547.341,997.145,548.9,998.633z"/>
					<path style="fill:#FFFFFF;" d="M370.158,1147.461c0,0,100.78-109.52,110.749-114.508c3.535-1.77,6.832-3.092,10.928-4.385
						l37.062-14.627l24.829,23.693l-12.889,37.694c-1.1,4.151-2.266,7.507-3.868,11.121
						c-4.517,10.19-109.089,116.104-109.089,116.104c-3.969,4.158-10.558,4.313-14.718,0.344c0,0-14.201-17.152-19.533-22.243
						c-5.333-5.091-23.127-18.476-23.127-18.476C366.343,1158.209,366.189,1151.621,370.158,1147.461z"/>
				</g>
				<g>
					<path style="fill:#E3EAFF;" d="M528.899,1086.279c-0.167,0-0.335-0.014-0.504-0.043c-37.418-6.334-46.062-41.283-46.145-41.637
						c-0.379-1.611,0.62-3.228,2.233-3.608c1.611-0.379,3.225,0.618,3.606,2.229l0,0c0.307,1.281,7.891,31.443,41.307,37.1
						c1.633,0.277,2.734,1.825,2.457,3.459C531.606,1085.244,530.336,1086.279,528.899,1086.279z"/>
				</g>
			</g>
			<g>
				<path style="fill:#F37A50;" d="M370.018,1107.039c7.782-12.113,6.729-27.451,15.647-34.122c5.351-4.003,17.408-0.7,28.393-3.422
					c10.648-2.631,15.35-12.907,27.744-17.795c10.142-4,15.11-2.066,16.941,1.91l-16.608,22.282
					c-3.25,6.854,1.127,18.635,26.831,36.631c19.65,13.758,39.304,16.375,34.623,28.682c-3.071,8.075-13.481,0.818-27.395-8.078
					c14.018,15.186,20.458,9.914,17.773,20.406c-3.243,12.674-29.655-4.926-41.026-15.341c11.1,20.146,30.787,18.066,28.627,26.265
					c-2.918,9.115-21.36,9.055-37.403-11.221c11.213,20.392,23.714,17.414,19.884,24.633c-3.98,7.504-37.089-1.357-61.222-27.354
					C396.617,1143.826,370.018,1107.039,370.018,1107.039z"/>
			</g>
			<path style="fill:#30357F;" d="M443.487,770.262c0,0-151.883,41.5-256.518,194.682c36.493,72.423,92.498,41.166,92.498,41.166
				l148.284-83.377c0,0,38.355-39.129,38.781-89.444C466.945,784.495,443.487,770.262,443.487,770.262z"/>
			<path style="fill:#30357F;" d="M408.378,1064.586L279.582,961.431c0,0-27.699-47.027-92.613,3.513
				c9.418,40.726,45.458,112.158,180.045,151.651C386.663,1102.252,408.378,1064.586,408.378,1064.586z"/>
		</g>
		<g>
			<path style="fill:#DE623C;" d="M620.47,735.219c11.23,0,19.352-3.174,19.704-3.312c2.583-1.027,3.845-3.952,2.819-6.535
				c-1.024-2.578-3.943-3.841-6.522-2.823c-1.204,0.47-28.898,10.88-50.082-12.939c-1.847-2.077-5.027-2.263-7.103-0.416
				c-2.077,1.847-2.263,5.027-0.416,7.104c13.565,15.253,29.5,18.703,40.478,18.91C619.724,735.215,620.099,735.219,620.47,735.219z
				"/>
		</g>
		<g>
			<path style="fill:#E3EAFF;" d="M889.45,1217.369c-0.56,0-1.126-0.157-1.631-0.484c-19.127-12.418-21.496-42.907-21.588-44.199
				c-0.117-1.652,1.128-3.087,2.781-3.203c1.651-0.114,3.086,1.125,3.204,2.777l0,0c0.021,0.287,2.263,28.811,18.871,39.592
				c1.39,0.902,1.785,2.761,0.882,4.151C891.395,1216.887,890.432,1217.369,889.45,1217.369z"/>
		</g>
		<g>
			<path style="fill:#E3EAFF;" d="M997.24,1181.844c-0.664,0-1.333-0.219-1.888-0.67c-25.352-20.572-28.261-53.232-28.372-54.613
				c-0.133-1.65,1.098-3.098,2.749-3.231c1.65-0.135,3.097,1.097,3.231,2.746l0,0c0.026,0.313,2.857,31.52,26.172,50.439
				c1.287,1.044,1.483,2.932,0.439,4.22C998.979,1181.465,998.113,1181.844,997.24,1181.844z"/>
		</g>
	</g>
	<g>
		<path style="fill:#FA942F;" d="M1137.256,1315.209l-1.76,22.592l-50.93,653.549c0,3.311-1.63,6.34-4.32,8.65h-419.75
			c-2.69-2.311-4.32-5.34-4.32-8.65l-19.84-282.46l-6.07-86.45l-20-284.639l-0.51-7.271v-0.01l-1.69-24.04
			c0-7.191,27.2-35.12,36.65-35.12l458.17,2.291C1123.506,1266.779,1137.256,1308.01,1137.256,1315.209z"/>
		<path style="fill:#FAD56E;" d="M1161.307,1271.361H577.14c-9.45,0-17.181,5.605-17.181,12.457v41.521
			c0,6.85,7.732,12.456,17.181,12.456h584.168c9.45,0,17.182-5.606,17.182-12.456v-41.521
			C1178.489,1276.967,1170.757,1271.361,1161.307,1271.361z"/>
		<g>
			<path style="fill:#FAD56E;" d="M872.656,1415.859c-84.47,0-153.19,68.721-153.19,153.191c0,84.469,68.72,153.189,153.19,153.189
				c84.47,0,153.19-68.72,153.19-153.189C1025.846,1484.58,957.127,1415.859,872.656,1415.859z M872.656,1712.32
				c-79,0-143.27-64.27-143.27-143.27s64.27-143.271,143.27-143.271s143.28,64.271,143.28,143.271S951.656,1712.32,872.656,1712.32z
				"/>
		</g>
		<g>
			<g>
				<path style="fill:#FAD56E;" d="M882.451,1455.338h-26.473c-2.153,0-3.898,1.745-3.898,3.898v20.951h34.269v-20.951
					C886.349,1457.083,884.604,1455.338,882.451,1455.338z"/>
				<path style="fill:#FAD56E;" d="M906.381,1638.205l-74.478,0.007c-1.436,0-2.599,1.163-2.599,2.599v45.26
					c0,5.739,4.654,10.393,10.394,10.393l58.887-0.009c5.741,0,10.394-4.653,10.394-10.394v-45.258
					C908.98,1639.367,907.816,1638.205,906.381,1638.205z"/>
				<path style="fill:#FAD56E;" d="M905.961,1553.551h-73.309c-1.436,0-2.599,1.163-2.599,2.598v72.969
					c0,1.436,1.163,2.599,2.599,2.599h73.309c1.435,0,2.599-1.163,2.599-2.599v-72.969
					C908.56,1554.714,907.396,1553.551,905.961,1553.551z"/>
				<path style="fill:#FAD56E;" d="M907.911,1527c-1.333-3.715-2.805-6.943-4.872-10.699h-67.633
					c-2.066,3.756-3.537,6.984-4.871,10.699c-3.762,10.475,1.775,20.05,1.775,20.05h73.826
					C906.137,1547.05,911.673,1537.475,907.911,1527z"/>
				<polygon style="fill:#FAD56E;" points="835.407,1516.301 852.081,1480.188 856.589,1480.188 840.813,1517.07 				"/>
				<polygon style="fill:#FAD56E;" points="903.04,1516.301 886.349,1480.188 881.336,1480.188 897.111,1517.07 				"/>
			</g>
		</g>
	</g>
</g>
<g>
	<g>
		<g>
			<g>
				<path style="fill:#DE623C;" d="M2337.085,854.109c54.302,19.541,88.265,128.047,71.72,262.82
					c-42.355,27.183-62.127-46.695-62.127-46.695s-22.973-85.408-34.689-118.095
					C2283.867,873.681,2310.904,844.688,2337.085,854.109z"/>
			</g>
			<path style="fill:#2C2858;" d="M2015.551,894.966c-35.948-53.088-65.273-135.981-9.476-158.273
				c55.797-22.292,46.666-65.534,34.053-107.254c-12.613-41.718,32.592-124.557,124.361-129.9
				c101.75-5.925,174.872,66.676,168.078,108.842c-6.795,42.166-1.279,68.845,30.124,83.397
				c31.404,14.552,65.407,73.371,25.751,122.024c-39.654,48.653,2.469,22.857-0.312,70.66
				C2385.35,932.264,2053.745,951.371,2015.551,894.966z"/>
			<polygon style="fill:#16142B;" points="2214.672,1402.078 2361.711,1316.008 2317.323,1171.142 2080.354,1175.285 
				2045.527,1323.301 2196.379,1402.5 			"/>
			<path style="fill:#0E6A41;" d="M2408.115,939.25c-15.807-61.232-81.525-97.914-96.219-101.828l-11.508-2.419l-20.373,91.993
				c0,0,27.047,36.184,45.693,68.655L2408.115,939.25z"/>
			<g>
				<path style="fill:#DE623C;" d="M2044.942,859.521c-53.344,22.025-85.066,160.543-91.221,244.583
					c43.564,25.199,64.511-24.854,64.511-24.854s46.103-89.768,56.3-122.961C2099.004,876.619,2070.659,848.902,2044.942,859.521z"
					/>
			</g>
			<path style="fill:#0E6A41;" d="M1980.144,946.559c12.243-64.801,73.882-98.935,88.38-103.524l11.385-2.947l24.593,90.956
				c0,0-29.732,35.569-46.86,68.867L1980.144,946.559z"/>
			<path style="fill:#3F964F;" d="M2318.602,979.05c-0.314-13.64-8.219-37.106-17.252-52.033
				c-7.583-12.533-5.084-29.76-5.438-45.082c-0.385-16.698-0.085-31.725,4.477-46.933c0,0-32.979-11.356-70.58-14.494l-81.969,3.035
				c-41.197,4.956-71.545,16.628-71.545,16.628c5.258,14.981,8.305,30.996,8.689,47.693c0.365,15.844,1.088,32.243-5.814,45.701
				c-7.818,15.25-13.922,38.168-13.618,51.321c0.271,11.727,6.374,20.439,15.878,41.938l-4.91,154.662l242.774-4.244l-15.616-152.4
				C2310.568,1008.68,2318.879,991.054,2318.602,979.05z"/>
			<g>
				<path style="fill:#FFFFFF;" d="M2102.712,957.901l38.044,60.017c-12.359,14.38-72.519,75.703-99.902,121.615
					c-39.024,65.428-28.947,225.223,121.676,225.223c147.656,0,141.787-124.883,132.723-187.844
					c-10.984-76.293-137.02-145.616-123.139-162.94c13.881-17.323,29.744-72.845,29.744-72.845l-47.162,17.788l-36.12-17.788
					L2102.712,957.901z"/>
				<path style="fill:#C2D1FF;" d="M2155.819,1025.277c0,0,28.493,94.141,51.353,114.945
					C2230.031,1161.027,2171.445,1057.152,2155.819,1025.277z"/>
				<path style="fill:#C2D1FF;" d="M2174.645,1035.142c0,0,42.219,87.733,62.9,81.513
					C2258.227,1110.436,2174.645,1035.142,2174.645,1035.142z"/>
				<path style="fill:#C2D1FF;" d="M2147.629,1017.684c0,0-11.486-13.781-18.377-40.69c11.157,12.142,20.018,19.362,22.971,30.519
					c7.548-15.095,18.705-28.878,19.361-27.565c-0.656,15.095-13.012,39.708-13.012,39.708L2147.629,1017.684z"/>
				<path style="fill:#3F964F;" d="M2185.738,1263.979c7.696-6.195,18.84-5.123,18.84-5.123s-1.334,11.115-9.029,17.311
					c-7.696,6.195-18.84,5.123-18.84,5.123S2178.043,1270.174,2185.738,1263.979z"/>
				<path style="fill:#E6CF91;" d="M2094.885,1175.324c0,0,3.047,15.223-4.637,24.158c-7.686,8.935-18.068,12.605-23.192,8.199
					s-3.048-15.223,4.638-24.158C2079.378,1174.589,2094.885,1175.324,2094.885,1175.324z"/>
				<path style="fill:#E6CF91;" d="M2144.69,1217.979c0,0-12.77,8.828-24.019,5.313c-11.248-3.516-16.717-18.045-16.717-18.045
					s12.77-8.829,24.019-5.313C2139.223,1203.449,2144.69,1217.979,2144.69,1217.979z"/>
				<g>
					<path style="fill:#B83131;" d="M2147.893,1237.242c0,0,5.619,18.767-6.502,24.922c-4.499-0.285-3.979-12.592-3.979-12.592
						l-1.715-11.185L2147.893,1237.242z"/>
					<path style="fill:#C4670A;" d="M2137.412,1249.572c0,0-1.053,7.695,18.469,17c-5.73,3.582-21.068,4.726-21.068,4.726
						l-7.457-14.161L2137.412,1249.572z"/>
					<path style="fill:#FA942F;" d="M2137.412,1249.572c-0.26,1.779-0.203,3.639,0.215,5.504c0.555,2.473,1.686,4.678,3.22,6.487
						c-28.897-4.885-55.958-16.017-72.517-38.139c-1.678-3.188-2.73-6.235-3.253-9.083c-1.911-10.488,3.426-18.316,11.478-20.947
						c2.739-0.903,5.799-1.191,8.991-0.787c7.317,0.934,15.354,5.558,21.962,15.066c7.67,11.049,16.909,17.133,27.182,18.994
						c1.865,3.639,4.751,6.577,8.205,8.535c1.561,0.895,3.246,1.58,4.998,2.039
						C2142.221,1239.028,2138.232,1243.914,2137.412,1249.572z"/>
					<g>
						<path style="fill:#FA942F;" d="M2089.096,1198.717c0,0,0,0.002,0.002,0.006
							C2089.096,1198.717,2089.096,1198.717,2089.096,1198.717z"/>
					</g>
					<g>
						<path style="fill:#EA3F3F;" d="M2086.236,1203.148c0,0,0.001,0,0.002,0.006
							C2086.236,1203.148,2086.236,1203.146,2086.236,1203.148z"/>
						<path style="fill:#EA3F3F;" d="M2156.139,1268.076c0.014,0.061,0.028,0.123,0.049,0.184
							c-40.207-3.404-80.342-16.738-98.008-52.24c-0.553-1.112-1.084-2.252-1.598-3.416c-4.514-13.543,9.409-22.232,19.973-19.209
							c4.238,1.203,7.943,4.307,9.686,9.752l0.001,0.006c11.653,18.203,28.114,27.664,56.653,32.051
							c1.561,0.895,3.246,1.58,4.998,2.039c-5.672,1.786-9.66,6.672-10.48,12.33c-0.26,1.779-0.203,3.639,0.215,5.504
							c0.555,2.473,1.686,4.678,3.22,6.487c3.542,4.189,9.239,6.316,14.96,5.032c0.028-0.006,0.047-0.018,0.074-0.024
							C2155.943,1267.072,2156.027,1267.574,2156.139,1268.076z"/>
					</g>
					<path style="fill:#FA942F;" d="M2169.844,1279.92c-5.168,3.197-12.581,5.575-22.48,6.408
						c-7.133,0.601-14.778,0.652-22.287,0.154c-13.675-0.91-26.897-3.671-35.803-8.361c-4.559-2.405-8.674-4.823-12.384-7.245
						c-36.886-24.091-33.357-48.302-18.71-54.856c2.096-0.94,4.424-1.52,6.897-1.678c8.399-0.561,18.45,3.693,26.739,14.799
						c12.114,16.226,28.974,20.566,45.596,20.432c-0.26,1.779-0.203,3.639,0.215,5.504c0.555,2.473,1.686,4.678,3.22,6.487
						c3.542,4.189,9.239,6.316,14.96,5.032c0.028-0.006,0.047-0.018,0.074-0.024c0.063,0.5,0.146,1.002,0.258,1.504
						c0.014,0.061,0.028,0.123,0.049,0.184C2157.746,1274.851,2163.402,1279.439,2169.844,1279.92z"/>
					<path style="fill:#FAD56E;" d="M2141.842,1273.89c0.308,1.37,2.855,1.966,5.693,1.329c2.836-0.635,4.887-2.263,4.58-3.633
						c-0.309-1.371-2.857-1.967-5.693-1.33C2143.585,1270.892,2141.535,1272.52,2141.842,1273.89z"/>
					<path style="fill:#FAD56E;" d="M2130.164,1277.637c-0.419,1.341,1.49,3.131,4.266,3.998c2.775,0.867,5.363,0.484,5.783-0.857
						c0.419-1.34-1.49-3.131-4.266-3.998C2133.172,1275.912,2130.584,1276.296,2130.164,1277.637z"/>
					<path style="fill:#FAD56E;" d="M2065.973,1253.63c-1.037,0.543-0.967,2.724,0.157,4.869s2.876,3.445,3.913,2.902
						c1.037-0.544,0.967-2.724-0.158-4.869C2068.762,1254.387,2067.01,1253.086,2065.973,1253.63z"/>
					<path style="fill:#FAD56E;" d="M2055.244,1240.443c-1.037,0.543-0.967,2.723,0.156,4.869c1.125,2.146,2.877,3.445,3.914,2.902
						c1.036-0.543,0.965-2.723-0.158-4.869C2058.032,1241.2,2056.281,1239.9,2055.244,1240.443z"/>
					<path style="fill:#FAD56E;" d="M2126.068,1270.034c0.043,1.107,1.934,1.93,4.222,1.841c2.288-0.09,4.108-1.059,4.065-2.164
						c-0.043-1.106-1.934-1.93-4.222-1.84C2127.846,1267.96,2126.025,1268.929,2126.068,1270.034z"/>
					<path style="fill:#FAD56E;" d="M2064.057,1248.641c0.479,0.998,2.54,1.005,4.605,0.016c2.065-0.988,3.353-2.6,2.875-3.597
						c-0.479-0.998-2.539-1.005-4.605-0.017C2064.867,1246.031,2063.58,1247.641,2064.057,1248.641z"/>
				</g>
				<g>
					<g>
						<path style="fill:#82421A;" d="M2242.652,1136.201c0,0,4.656-3.234,8.002-7.601c3.587-4.68,3.287-8.762,3.287-8.762
							c-0.972-3.523-5.555-3.707-7.207-1.305c0,0,6.103,4.654-5.136,15.129L2242.652,1136.201z"/>
						<g transform="matrix( 0.367584228515625, 0, 0, 0.367584228515625, 1340.05,345.7) ">
							<g>
								<g id="Layer0_40_FILL_1_">
									<path style="fill:#F5E9A8;" d="M2386.989,2201.711L2386.989,2201.711L2386.989,2201.711L2386.989,2201.711z"/>
								</g>
							</g>
						</g>
						<g transform="matrix( 0.367584228515625, 0, 0, 0.367584228515625, 1340.2,345.75) ">
							<g>
								<g id="Layer0_40_MEMBER_1_MEMBER_0_FILL_1_">
									<path style="fill:#F5E9A8;" d="M2386.767,2201.819L2386.767,2201.819L2386.767,2201.819L2386.767,2201.819z"/>
								</g>
							</g>
						</g>
						<path style="fill:#FAD56E;" d="M2225.708,1121.139c0,0,4.922,7.872,1.571,19.615c-2.205,1.374-16.119,9.963-16.119,9.963
							l-1.188,10.967c0,0-7.399,9.803-15.439,10.845c3.978,2.454,9.495,4.181,12.94,3.532c0.9,2.811,6.129,6.828,9.02,6.445
							c1.427,3.484,4.153,8.974,7.838,10.551c-0.479-1.61-2.099-11.982-1.379-15.586c2.73-1.636,17.921-12.625,17.921-12.625
							l5.859-16.934c0,0,5.632-3.42,8.411-3.092c2.78,0.326,6.047,1.064,6.047,1.064s-6.178-6.038-13.429-4.121
							c-0.519-1.377-7.118-8.31-12.036-7.873C2234.928,1132.055,2230.813,1122.229,2225.708,1121.139z"/>
						<g transform="matrix( 0.367584228515625, 0, 0, 0.367584228515625, 1340.2,345.75) ">
							<g>
								<g id="Layer0_40_MEMBER_4_FILL_1_">
									<path style="fill:#EA3F3F;" d="M2433.094,2118.717c-7.293-5.016-15.345-8.044-24.123-9.142
										c11.878,7.043,20.058,19.083,24.604,36.155c6.788,0.08,12.665,1.868,17.702,5.505c5.295,3.385,9.123,8.271,11.647,14.681
										c17.51-1.902,31.678,1.429,42.502,10.005c-4.163-7.805-10.146-14.346-17.869-19.745c-7.999-5.499-17.8-9.644-29.442-12.367
										c-1.126-0.252-2.192-0.47-3.315-0.72c-0.909-1.578-1.838-2.997-2.787-4.517
										C2446.452,2130.157,2440.153,2123.571,2433.094,2118.717z"/>
								</g>
							</g>
						</g>
						<g transform="matrix( 0.367584228515625, 0, 0, 0.367584228515625, 1340.2,345.75) ">
							<g>
								<g id="Layer0_40_MEMBER_6_MEMBER_0_FILL_1_">
									<path style="fill:#EA3F3F;" d="M2324.185,2249.226c4.16,6.413,9.468,11.798,15.762,16.126
										c4.763,3.276,10.327,6.15,16.766,8.501c2.641,0.948,5.377,1.875,8.358,2.715c2.075,2.901,4.214,5.584,6.474,8.092
										c3.818,4.272,7.984,7.917,12.511,11.031c6.647,4.57,13.751,7.726,21.291,9.357c-9.952-6.063-17.061-15.632-21.328-28.703
										c-5.691-0.537-10.696-2.333-15.008-5.382c-4.45-2.976-7.917-7.009-10.396-12.093
										C2344.881,2259.563,2333.407,2256.345,2324.185,2249.226z"/>
								</g>
							</g>
						</g>
					</g>
				</g>
				<g>
					<path style="fill:#C4670A;" d="M2166.531,1238.402c0,0,5.414,5.35,1.854,12.037c1.908,1.829,11.311,5.734,11.311,5.734
						l3.586-13.232l-11.609-8.668L2166.531,1238.402z"/>
					<g>
						<path style="fill:#B83131;" d="M2227.732,1259.248c-3.518,4.092-0.013,12.877,7.831,19.623
							c7.844,6.746,17.055,8.898,20.573,4.807c3.52-4.092,0.014-12.877-7.83-19.623
							C2240.463,1257.309,2231.252,1255.156,2227.732,1259.248z"/>
						<path style="fill:#EA3F3F;" d="M2228.398,1256.383c-3.519,4.092-0.013,12.877,7.831,19.623
							c7.843,6.746,17.055,8.898,20.573,4.807c3.52-4.092,0.014-12.877-7.83-19.623S2231.918,1252.291,2228.398,1256.383z"/>
					</g>
					<g>
						<path style="fill:#FAB62F;" d="M2165.359,1238.557c0.373,0.191,0.748,0.389,1.125,0.582c0.02-0.158,0.029-0.316,0.039-0.476
							c0.004-0.088,0.008-0.174,0.008-0.26c-0.166,0.013-0.332,0.029-0.5,0.051
							C2165.805,1238.482,2165.58,1238.517,2165.359,1238.557z"/>
						<path style="fill:#FA942F;" d="M2166.531,1238.402c1.48-0.133,3.006-0.006,4.52,0.406c2.448,0.662,4.545,1.984,6.143,3.724
							c0.596,0.638,1.117,1.337,1.566,2.089c1.773,2.922,2.39,6.54,1.423,10.107c-0.135,0.497-0.3,0.981-0.487,1.445
							c4.817,1.826,10.182,3.565,16.059,5.158c31.369,8.501,52.137,5.938,54.031-1.054c0.633-2.337,0.84-5.437,0.354-8.216
							l-0.004-0.006c-0.09-0.514-0.205-1.018-0.349-1.51c-0.646-2.244-1.845-4.1-3.759-4.886c-0.197-0.082-0.398-0.151-0.611-0.208
							l-77.462-20.993c-0.948,2.198-2.466,4.028-4.324,5.366C2165.564,1232.205,2166.631,1235.24,2166.531,1238.402z"/>
						<path style="fill:#D49415;" d="M2165.359,1238.557c0.373,0.191,0.748,0.389,1.125,0.582c0.02-0.158,0.029-0.316,0.039-0.476
							c0.004-0.088,0.008-0.174,0.008-0.26c-0.166,0.013-0.332,0.029-0.5,0.051
							C2165.805,1238.482,2165.58,1238.517,2165.359,1238.557z"/>
						<path style="fill:#C4670A;" d="M2166.531,1238.402c1.48-0.133,3.006-0.006,4.52,0.406c2.448,0.662,4.545,1.984,6.143,3.724
							c0.596,0.638,1.117,1.337,1.566,2.089c6.799,2.709,13.86,5.066,19.719,6.654c18.018,4.883,49.568,9.242,51.537,1.98
							c0.105-0.392,0.146-0.785,0.123-1.193l-0.004-0.006c-0.02-0.492-0.136-0.994-0.349-1.51c-0.594-1.506-1.94-3.097-3.923-4.725
							c-0.15-0.127-0.308-0.25-0.465-0.375c-7.371-5.807-22.623-12.096-40.732-17.004c-13.801-3.738-26.567-5.945-35.977-6.221
							c-0.032,0.153-0.068,0.306-0.109,0.457c-0.168,0.617-0.375,1.209-0.626,1.78c-0.948,2.198-2.466,4.028-4.324,5.366
							C2165.564,1232.205,2166.631,1235.24,2166.531,1238.402z"/>
					</g>
					<path style="fill:#82421A;" d="M2166.523,1238.662c0.004-0.088,0.008-0.174,0.008-0.26c-0.166,0.013-0.332,0.029-0.5,0.051
						C2166.193,1238.525,2166.355,1238.594,2166.523,1238.662z"/>
					<path style="fill:#82421A;" d="M2167.954,1224.46c-0.948,2.198-2.466,4.028-4.324,5.366c1.935,2.379,3.001,5.414,2.901,8.576
						c1.48-0.133,3.006-0.006,4.52,0.406c2.448,0.662,4.545,1.984,6.143,3.724c5.939,1.856,12.621,3.507,19.738,4.813
						c23.258,4.277,43.445,3.469,48.932-1.524c0.058-0.051,0.115-0.107,0.164-0.161c0.68-0.659,1.102-1.39,1.246-2.188l0.957-5.201
						c1.292-7.021-20.525-9.205-47.041-14.078c-12.395-2.282-23.624-4.743-32.203-6.006c0.113,1.324,0.023,2.678-0.297,4.035
						c-0.032,0.153-0.068,0.306-0.109,0.457C2168.412,1223.297,2168.205,1223.889,2167.954,1224.46z"/>
					<path style="fill:#FFC930;" d="M2171.105,1212.148l5.533,14.287c0,0,56.045,19.119,56.372,21.943
						c0.327,2.826-1.754,20.189-1.754,20.189l22.939-7.994l-1.349-20.264l-24.549-23.763L2171.105,1212.148z"/>
					<g>
						<path style="fill:#B83131;" d="M2213.289,1231.123c-0.584,5.426,8.072,10.807,19.335,12.018
							c11.263,1.211,20.173-2.641,21.449-7.631c0,0,0.987-2.838,0.839-3.425c-1.208-4.78-10.143-7.513-20.175-8.592
							C2223.475,1222.281,2213.872,1225.698,2213.289,1231.123z"/>
						<path style="fill:#EA3F3F;" d="M2214.127,1227.698c-0.584,5.425,8.074,10.806,19.336,12.017
							c11.263,1.211,20.865-2.205,21.449-7.63c0.584-5.426-8.073-10.806-19.336-12.017
							C2224.314,1218.855,2214.711,1222.271,2214.127,1227.698z"/>
					</g>
					<g>
						<path style="fill:#B83131;" d="M2177.658,1219.809c-2.904,5.046,2.586,13.651,12.261,19.218
							c9.675,5.567,19.872,5.988,22.776,0.941c2.904-5.047-2.586-13.65-12.261-19.218
							C2190.76,1215.184,2180.563,1214.762,2177.658,1219.809z"/>
						<path style="fill:#EA3F3F;" d="M2177.118,1215.822c-2.904,5.047,2.585,13.651,12.261,19.217
							c9.675,5.566,19.873,5.988,22.775,0.941c2.904-5.047-2.584-13.65-12.26-19.218
							C2190.219,1211.195,2180.021,1210.773,2177.118,1215.822z"/>
					</g>
					<path style="fill:#3F964F;" d="M2251.203,1213.201c6.936,2.457,6.354,8.486,0.048,8.461s-11.006,3.328-16.3,5.225
						c-5.294,1.893-20.068-5.879-25.953-6.188c-5.887-0.309-10.937,2.576-14.076-0.988c-3.14-3.565-12.581-7.223-18.645-7.023
						c-6.063,0.195-10.965-2.387-11.695-5.361c-0.732-2.975-1.881-2.309-7.521-2.123c-11.627,0.385-10.165-7.777-6.6-8.328
						c16.742-2.593,19.656-8.504,38.376-4.962C2195.166,1193.111,2251.203,1213.201,2251.203,1213.201z"/>
					<g>
						<path style="fill:#FA942F;" d="M2267.803,1231.434c4.01-7.082,6.48-24.826-30.667-45.863
							c-37.954-21.494-51.075-9.781-55.115-2.717l-0.053,0.092c-0.024,0.035-0.046,0.072-0.062,0.111
							c-1.711,4.418,15.275,18.623,38.59,31.827c23.314,13.204,44.213,20.454,47.133,16.72c0.025-0.035,0.046-0.071,0.063-0.111
							l0.053-0.092L2267.803,1231.434z"/>
						<path style="fill:#D49415;" d="M2244.502,1210.576c-0.375,0.787,0.82,2.141,2.67,3.024c1.851,0.883,3.654,0.961,4.029,0.174
							c0.375-0.785-0.82-2.137-2.67-3.021C2246.681,1209.869,2244.877,1209.791,2244.502,1210.576z"/>
						<path style="fill:#D49415;" d="M2197.501,1188.773c-0.085,0.868,1.5,1.732,3.54,1.934c2.041,0.199,3.764-0.341,3.849-1.207
							c0.085-0.867-1.5-1.733-3.54-1.932C2199.309,1187.367,2197.586,1187.908,2197.501,1188.773z"/>
						<path style="fill:#B87B1F;" d="M2224.268,1191.656c-0.085,0.867,1.5,1.732,3.54,1.932c2.04,0.2,3.763-0.34,3.849-1.207
							c0.085-0.867-1.5-1.73-3.541-1.932C2226.076,1190.25,2224.353,1190.791,2224.268,1191.656z"/>
					</g>
					<path style="fill:#606060;" d="M2165.359,1238.557c0.373,0.191,0.748,0.389,1.125,0.582c0.02-0.158,0.029-0.316,0.039-0.476
						c0.004-0.088,0.008-0.174,0.008-0.26c-0.166,0.013-0.332,0.029-0.5,0.051
						C2165.805,1238.482,2165.58,1238.517,2165.359,1238.557z"/>
					<path style="fill:#606060;" d="M2165.359,1238.557c0.373,0.191,0.748,0.389,1.125,0.582c0.02-0.158,0.029-0.316,0.039-0.476
						c0.004-0.088,0.008-0.174,0.008-0.26c-0.166,0.013-0.332,0.029-0.5,0.051
						C2165.805,1238.482,2165.58,1238.517,2165.359,1238.557z"/>
				</g>
				<g>
					<g>
						<path style="fill:#82421A;" d="M2105.879,1123.142c0,0-2.289-6.479-6.318-11.787c-4.322-5.69-9.188-6.648-9.188-6.648
							c-4.428,0.008-6.11,5.303-3.832,8.004c0,0,7.392-5.639,16.033,10.85L2105.879,1123.142z"/>
						<g transform="matrix( 0.367584228515625, 0, 0, 0.367584228515625, 1340.05,345.7) ">
							<g>
								<g id="Layer0_40_FILL_2_">
									<path style="fill:#F5E9A8;" d="M2121.27,2211.458L2121.27,2211.458L2121.27,2211.458L2121.27,2211.458z"/>
								</g>
							</g>
						</g>
						<g transform="matrix( 0.367584228515625, 0, 0, 0.367584228515625, 1340.2,345.75) ">
							<g>
								<g id="Layer0_40_MEMBER_1_MEMBER_0_FILL_2_">
									<path style="fill:#F5E9A8;" d="M2121.208,2211.184L2121.208,2211.184L2121.208,2211.184L2121.208,2211.184z"/>
								</g>
							</g>
						</g>
						<path style="fill:#FAD56E;" d="M2082.85,1138.117c0,0,10.775-3.23,23.426,4.447c0.898,3.017,6.478,22.028,6.478,22.028
							l12.437,4.901c0,0,9.084,11.786,7.727,21.516c4.141-3.863,7.926-9.756,8.273-13.99c3.57-0.151,9.941-4.975,10.419-8.475
							c4.528-0.552,11.819-1.979,14.839-5.78c-2.033,0.044-14.674-1.386-18.654-3.382c-1.036-3.713-9.011-24.986-9.011-24.986
							l-17.911-12.271c0,0-2.191-7.677-0.92-10.82c1.273-3.143,3.183-6.724,3.183-6.724s-9.036,5.285-9.118,14.371
							c-1.775,0.166-11.991,5.656-13.056,11.543C2098.559,1130.84,2085.76,1132.502,2082.85,1138.117z"/>
						<g transform="matrix( 0.367584228515625, 0, 0, 0.367584228515625, 1340.2,345.75) ">
							<g>
								<g id="Layer0_40_MEMBER_4_FILL_2_">
									<path style="fill:#EA3F3F;" d="M2038.94,2130.423c-8.199,6.918-14.317,15.361-18.411,25.263
										c12.035-11.623,28.724-17.33,50.132-17.168c2.269-7.909,6.238-14.203,12.102-18.921c5.651-5.104,12.587-8.015,20.887-8.908
										c3.385-21.073,11.82-36.562,25.305-46.466c-10.451,2.367-20.013,7.263-28.796,14.559
										c-8.99,7.585-16.968,17.71-23.881,30.443c-0.659,1.235-1.249,2.41-1.905,3.642c-2.134,0.558-4.091,1.19-6.172,1.812
										C2056.586,2118.478,2046.873,2123.733,2038.94,2130.423z"/>
								</g>
							</g>
						</g>
						<g transform="matrix( 0.367584228515625, 0, 0, 0.367584228515625, 1340.2,345.75) ">
							<g>
								<g id="Layer0_40_MEMBER_6_MEMBER_0_FILL_2_">
									<path style="fill:#EA3F3F;" d="M2156.558,2299.501c8.831-2.811,16.822-7.29,23.894-13.257
										c5.356-4.516,10.494-10.096,15.305-16.87c1.953-2.779,3.919-5.68,5.848-8.895c4.057-1.496,7.879-3.135,11.535-4.973
										c6.214-3.093,11.806-6.793,16.896-11.086c7.471-6.304,13.43-13.592,17.755-21.878
										c-10.274,9.684-23.732,14.925-40.371,15.722c-2.452,6.482-6.153,11.753-11.103,15.815
										c-4.902,4.248-10.722,7.006-17.46,8.276C2175.269,2278.625,2167.835,2291.005,2156.558,2299.501z"/>
								</g>
							</g>
						</g>
						<path style="fill:#82421A;" d="M2125.217,1147.842c0.457,1.572-0.258,3.162-1.598,3.551c-1.338,0.389-2.793-0.57-3.25-2.141
							c-0.457-1.572-0.59-4.754,0.75-5.143C2122.457,1143.721,2124.761,1146.271,2125.217,1147.842z"/>
						<path style="fill:#82421A;" d="M2131.373,1140.629c1.361,0.908,1.838,2.584,1.065,3.744s-2.504,1.365-3.866,0.458
							c-1.361-0.907-3.513-3.255-2.74-4.415C2126.605,1139.256,2130.011,1139.722,2131.373,1140.629z"/>
					</g>
				</g>
				<path style="fill:#3F964F;" d="M2063.217,1156.256c6.432,7.5,5.707,18.671,5.707,18.671s-11.152-0.987-17.584-8.487
					c-6.431-7.5-5.706-18.672-5.706-18.672S2056.785,1148.756,2063.217,1156.256z"/>
				<path style="fill:#3F964F;" d="M2257.977,1158.422c7.695-6.195,18.84-5.123,18.84-5.123s-1.334,11.115-9.03,17.31
					s-18.84,5.123-18.84,5.123S2250.279,1164.617,2257.977,1158.422z"/>
				<path style="fill:#C2D1FF;" d="M2135.447,1049.209c0,0-60.308,29.99-59.285,63.313
					C2077.186,1145.845,2135.447,1049.209,2135.447,1049.209z"/>
			</g>
			<path style="fill:#F37A50;" d="M2209.449,1027.336l142.658,22.771c0,0,73.348,0.726,56.442,68.938
				c-30.554,17.861-69.774,11.901-204.157-57.261L2209.449,1027.336z"/>
			<path style="fill:#DE623C;" d="M2161.188,1017.789l-152.451,38.219c0,0-73.099,6.053-51.221,72.854
				c31.785,15.594,74.219,0.125,203.155-78.615C2189.959,1035.291,2161.188,1017.789,2161.188,1017.789z"/>
			<path style="fill:#DE623C;" d="M2145.793,772.667l82.869-1.911l1.422,61.675c0,0-15.502,7.496-44.026,7.97
				c-28.524,0.475-38.842-6.059-38.842-6.059L2145.793,772.667z"/>
			<path style="fill:#DE623C;" d="M2263.854,674.016c-5.863,16.975-0.74,34.028,11.441,38.089
				c12.182,4.061,26.81-6.408,32.672-23.384c5.863-16.975,0.741-34.029-11.44-38.089
				C2284.345,646.57,2269.717,657.042,2263.854,674.016z"/>
			<path style="fill:#F37A50;" d="M2281.035,654.259c-5.412-59.36-4.932-120.476-99.006-118.306
				c-94.073,2.17-90.996,53.656-92.859,122.731c-1.953,72.389,50.773,130.015,99.024,131.836
				C2234.509,792.267,2287.609,726.378,2281.035,654.259z"/>
			<path d="M2228.681,683.905c-3.147,5.31-10.075,7.109-15.472,4.018c-5.397-3.09-7.221-9.902-4.074-15.212
				c3.148-5.31,10.074-7.108,15.473-4.017C2230.004,671.784,2231.828,678.595,2228.681,683.905z"/>
			<path d="M2142.969,688.522c-2.955,4.985-9.457,6.675-14.523,3.772c-5.066-2.9-6.778-9.294-3.824-14.279
				c2.955-4.985,9.457-6.673,14.523-3.772C2144.211,677.146,2145.923,683.539,2142.969,688.522z"/>
			<g>
				<path style="fill:#2C2858;" d="M2110.529,667.996c-0.406-0.163-0.789-0.401-1.131-0.717c-1.669-1.539-1.739-4.328-0.158-6.23
					c12.282-14.775,28.097-11.123,28.764-10.96c2.192,0.535,3.429,2.906,2.75,5.293c-0.676,2.381-2.994,3.88-5.186,3.357
					c-0.52-0.119-11.646-2.51-20.285,7.881C2114.026,668.133,2112.104,668.63,2110.529,667.996z"/>
			</g>
			<g>
				<path style="fill:#2C2858;" d="M2238.971,662.502c0.395-0.19,0.76-0.452,1.08-0.79c1.563-1.646,1.447-4.434-0.259-6.228
					c-13.243-13.928-28.778-9.237-29.433-9.03c-2.152,0.679-3.227,3.126-2.391,5.463c0.834,2.33,3.248,3.673,5.399,3.008
					c0.511-0.154,11.452-3.277,20.767,6.52C2235.49,662.87,2237.443,663.238,2238.971,662.502z"/>
			</g>
			<path style="fill:#DE623C;" d="M2167.359,696.298c-3.086,6.963-5.496,13.853-9.164,18.616c-1.237,1.605-0.945,3.918,0.625,5.211
				c6.478,5.332,19.956,6.702,28.023,7.029c1.178,0.048,1.51-1.569,0.407-1.976c-9.337-3.449-14.06-6.788-16.263-8.766
				c-1.096-0.983-1.625-2.419-1.465-3.871c0.369-3.329,1.053-10.094,1.185-15.533
				C2170.754,695.129,2168.123,694.575,2167.359,696.298z"/>
			<path style="fill:#FFFFFF;" d="M2209.781,746.459c1.273-2.036-0.297-4.75-2.539-4.37c-5.702,0.969-15.137,2.354-24.182,2.705
				c-9.044,0.354-18.56-0.29-24.32-0.81c-2.266-0.204-3.617,2.623-2.187,4.555c4.399,5.938,13.359,14.858,27.222,14.317
				C2197.639,762.314,2205.865,752.722,2209.781,746.459z"/>
			<path style="fill:#2C2858;" d="M2077.646,645.108c0,0,83.301,5.706,145.491-41.65c9.129,15.405,38.228,36.516,56.484,45.644
				c18.258,9.128,2.282-86.153-13.693-101.558c-15.976-15.405-123.239-27.958-146.632-16.546
				C2095.904,542.409,2077.646,645.108,2077.646,645.108z"/>
			<g>
				<path style="fill:#F37A50;" d="M2204.393,1061.784c1.885-11.331,10.727-19.838,9.025-28.559
					c-1.021-5.234-9.92-9.74-14.959-17.234c-4.887-7.261-2.271-16.434-8.273-25.208c-5.211-7.618-7.607-9.121-10.82-7.75
					l-0.938,21.7c-1.75,5.795-10.648,10.416-35.49,7.289c-18.99-2.389-32.016-11.37-35.84-1.586
					c-2.511,6.422,7.533,7.706,20.527,9.899c-16.425,1.47-17.41-5.097-21.441,2.546c-4.873,9.233,20.176,12.973,32.479,12.906
					c-17.356,5.967-27.884-5.81-30.999,0.196c-3.158,6.952,7.781,16.798,28.131,13.401c-17.557,6.053-23.354-2.405-24.957,3.916
					c-1.664,6.568,22.662,19.066,50.859,16.619C2168.955,1069.291,2204.393,1061.784,2204.393,1061.784z"/>
			</g>
			<g>
				<path style="fill:#0E6A41;" d="M2254.021,899.993c8.99-10.417,17.265-0.618,15.324,6.712
					c-1.548,8.181-15.338,19.089-15.588,18.021C2224.287,902.977,2245.953,887.676,2254.021,899.993z"/>
			</g>
		</g>
	</g>
	<g>
		<path style="fill:#C4204A;" d="M2447.816,1315.209l-1.76,22.592l-50.93,653.549c0,3.311-1.631,6.34-4.32,8.65h-419.75
			c-2.69-2.311-4.32-5.34-4.32-8.65l-45.91-653.549l-2.199-31.321c0-7.191,27.209-35.12,36.649-35.12l73.69,0.37l28.66,0.14
			l20.969,0.11h0.011l63.819,0.321l9.631,0.039h0.01l5.76,0.029l21.53,0.11l19.64,0.1l30.96,0.15l2.94,0.021h0.01l22.641,0.109
			l1.92,0.01l36.879,0.182l54.281,0.279h0.01l64.819,0.32C2434.066,1266.779,2447.816,1308.01,2447.816,1315.209z"/>
		<path style="fill:#E62552;" d="M2471.868,1271.361h-584.167c-9.45,0-17.182,5.605-17.182,12.457v41.521
			c0,6.85,7.731,12.456,17.182,12.456h584.167c9.45,0,17.182-5.606,17.182-12.456v-41.521
			C2489.05,1276.967,2481.318,1271.361,2471.868,1271.361z"/>
		<g>
			<path style="fill:#E62552;" d="M2183.217,1415.859c-84.461,0-153.181,68.721-153.181,153.191
				c0,84.469,68.72,153.189,153.181,153.189c84.47,0,153.189-68.72,153.189-153.189
				C2336.406,1484.58,2267.687,1415.859,2183.217,1415.859z M2183.217,1712.32c-79,0-143.271-64.27-143.271-143.27
				s64.271-143.271,143.271-143.271c79.01,0,143.279,64.271,143.279,143.271S2262.227,1712.32,2183.217,1712.32z"/>
		</g>
		<g>
			<path style="fill:#E62552;" d="M2244.395,1605.021c-9.266,4.299-24.043,6.18-34.781,0.291
				c9.201-23.57,30.138-45.131,30.793-45.809c-0.645,0.387-25.129,15.563-36.059,41.928c-0.301-0.29-0.592-0.592-0.881-0.902
				c-10.748-11.662-7.384-31.319-1.816-40.326c10.103-16.315,31.932-31.094,68.561-31.146
				C2276.724,1564.6,2265.385,1595.306,2244.395,1605.021z"/>
			<path style="fill:#E62552;" d="M2116.85,1511.655c1.269,1.118,33.963,29.943,60.479,66.497
				c-15.972,11.221-39.369,6.394-52.837-1.332c-24.517-14.059-36.22-49.301-26.901-86.963c45.172-5.953,82.543,11.136,92.205,37.77
				c4.869,13.424,4.535,34.285-8.146,46.914C2153.617,1538.74,2118.236,1512.676,2116.85,1511.655z"/>
			<path style="fill:#E62552;" d="M2181.412,1648.798c-17.314,13.487-48.709,9.253-76.793-12.372
				c16.175-31.361,42.453-48.783,63.98-44.226c7.912,1.666,19.014,7.125,24.398,16.756c-23.355-3.504-48.161,11.662-49.396,12.436
				c1.375-0.56,29.578-11.834,52.029-5.535C2198.586,1629.451,2189.301,1642.65,2181.412,1648.798z"/>
		</g>
	</g>
</g>
<g>
	<path style="fill:#F0F4FF;" d="M1666.178,293.438c-1.472,1.173-4.043,3.797-4.043,3.797l21.105,33.667l32.492-20.45l-9.59-25.458
		C1693.626,273.082,1674.266,286.995,1666.178,293.438z"/>
	<path style="fill:#F0F4FF;" d="M1757.252,296.518c-15.066-20.09-46.671-13.231-46.671-13.231
		c19.151,37.067,11.6,49.756,11.6,49.756l-15.147,4.604l42.629,17.029l26.193-33.109l-13.453,2.118
		C1762.402,323.684,1760.529,302.391,1757.252,296.518z"/>
	<path style="fill:#F0F4FF;" d="M1782.404,358.791l-39.049,7.351l7.169,37.715l27.202,0.371c15.66-7.299,9.78-30.404,6.736-40.287
		C1783.908,362.142,1782.404,358.791,1782.404,358.791z"/>
	<path style="fill:#F0F4FF;" d="M1727.139,401.609l1.247-15.782l-31.422,33.464l21.254,36.479l2.943-13.297
		c0,0,20.506,6.034,27.17,5.126c24.205-6.688,29.364-38.615,29.364-38.615C1736.193,413.274,1727.139,401.609,1727.139,401.609z"/>
	<path style="fill:#F0F4FF;" d="M1633.56,405.386c-1.308,17.228,21.715,23.42,31.822,25.606c1.84,0.398,5.498,0.729,5.498,0.729
		l12.72-37.643l-36.392-12.226L1633.56,405.386z"/>
	<path style="fill:#F0F4FF;" d="M1617.777,328.258l10.152,9.079c0,0-15.306,14.921-17.78,21.176
		c-6.026,24.378,19.28,44.515,19.28,44.515c16.59-38.282,31.195-40.462,31.195-40.462l13.148,8.817l-13.782-43.787L1617.777,328.258
		z"/>
</g>
<g>
	<path style="fill:#E3EAFF;" d="M2505.314,999.342c0,1.664,0.399,4.889,0.399,4.889l34.928,3.947l3.753-33.753l-22.902-7.392
		C2506.352,969.129,2505.311,990.193,2505.314,999.342z"/>
	<path style="fill:#E3EAFF;" d="M2557.631,938.012c-22.206-0.644-34.875,25.007-34.875,25.007
		c36.205,7.172,40.825,19.392,40.825,19.392l-5.161,13.018l35.275-20.117l-8.479-36.372l-5.947,10.477
		C2579.269,949.417,2563.501,938.98,2557.631,938.012z"/>
	<path style="fill:#E3EAFF;" d="M2614.585,954.921l-16.431,31.073l30.051,15.82l15.246-18.619
		c3.578-14.861-15.65-23.522-24.168-26.862C2617.732,955.727,2614.585,954.921,2614.585,954.921z"/>
	<path style="fill:#E3EAFF;" d="M2613.764,1016.76l-10.234-9.559l5.843,40.186l36.956,5.391l-7.581-9.363
		c0,0,15.476-10.866,18.521-15.978c8.709-20.436-10.543-41.599-10.543-41.599C2626.825,1016.922,2613.764,1016.76,2613.764,1016.76z
		"/>
	<path style="fill:#E3EAFF;" d="M2564.811,1083.6c11.203,10.399,28.174-2.122,35.256-7.913c1.29-1.053,3.535-3.402,3.535-3.402
		l-19.041-29.546l-28.514,18.448L2564.811,1083.6z"/>
	<path style="fill:#E3EAFF;" d="M2502.74,1052.023l11.876-2.023c0,0,1.893,18.814,4.858,23.973
		c13.549,17.604,41.43,11.188,41.43,11.188c-17.352-32.576-10.813-43.884-10.813-43.884l13.348-4.239l-37.896-14.592
		L2502.74,1052.023z"/>
</g>
<circle style="fill:#F0F4FF;" cx="1808.73" cy="738.91" r="34.07"/>
<path style="fill:#D4DEFF;" d="M1217.629,233.713c0,13.228-10.724,23.953-23.953,23.953c-13.229,0-23.953-10.725-23.953-23.953
	c0-13.229,10.724-23.953,23.953-23.953C1206.905,209.76,1217.629,220.484,1217.629,233.713z"/>
<ellipse transform="matrix(0.1222 -0.9925 0.9925 0.1222 -378.3419 898.685)" style="fill:#F0F4FF;" cx="318.88" cy="663.229" rx="34.07" ry="34.07"/>
<path style="fill:#F0F4FF;" d="M2341.807,306.043c0,18.816-15.254,34.07-34.07,34.07s-34.07-15.254-34.07-34.07
	c0-18.817,15.254-34.071,34.07-34.071S2341.807,287.227,2341.807,306.043z"/>
<path style="fill:#F0F4FF;" d="M2747.346,707.926c0,12.445-10.09,22.534-22.535,22.534s-22.533-10.089-22.533-22.534
	c0-12.445,10.088-22.534,22.533-22.534S2747.346,695.481,2747.346,707.926z"/>
<path style="fill:#F0F4FF;" d="M3307.139,1620.139c0,12.445-10.09,22.533-22.535,22.533s-22.534-10.088-22.534-22.533
	c0-12.445,10.089-22.535,22.534-22.535S3307.139,1607.693,3307.139,1620.139z"/>
<path style="fill:#D4DEFF;" d="M2631.529,192.357c0,28.233-22.888,51.12-51.121,51.12c-28.232,0-51.119-22.887-51.119-51.12
	c0-28.233,22.887-51.119,51.119-51.119C2608.642,141.238,2631.529,164.124,2631.529,192.357z"/>
<g>
	<path style="fill:#D4DEFF;" d="M1149.046,273.793c-24.6,0-44.62,20.02-44.62,44.62c0,24.61,20.02,44.63,44.62,44.63
		c24.61,0,44.63-20.02,44.63-44.63C1193.676,293.813,1173.656,273.793,1149.046,273.793z M1149.046,342.793
		c-13.44,0-24.37-10.94-24.37-24.38c0-13.44,10.93-24.37,24.37-24.37c13.44,0,24.38,10.93,24.38,24.37
		C1173.426,331.853,1162.486,342.793,1149.046,342.793z"/>
</g>
<g>
	<path style="fill:#F0F4FF;" d="M864.276,878.343c-18.78,0-34.06,15.28-34.06,34.061c0,18.77,15.28,34.05,34.06,34.05
		c18.77,0,34.05-15.28,34.05-34.05C898.326,893.623,883.046,878.343,864.276,878.343z M864.276,931.003
		c-10.26,0-18.61-8.35-18.61-18.6c0-10.26,8.35-18.6,18.61-18.6c10.25,0,18.6,8.339,18.6,18.6
		C882.877,922.654,874.526,931.003,864.276,931.003z"/>
</g>
<g>
	<path style="fill:#F0F4FF;" d="M1743.356,625.713c-18.78,0-34.06,15.27-34.06,34.051c0,18.779,15.28,34.059,34.06,34.059
		c18.78,0,34.05-15.28,34.05-34.059C1777.406,640.983,1762.137,625.713,1743.356,625.713z M1743.356,678.363
		c-10.26,0-18.6-8.34-18.6-18.599c0-10.25,8.34-18.6,18.6-18.6c10.26,0,18.6,8.35,18.6,18.6
		C1761.956,670.023,1753.616,678.363,1743.356,678.363z"/>
</g>
<g>
	<path style="fill:#F0F4FF;" d="M2586.956,771.543c-18.78,0-34.06,15.27-34.06,34.051c0,18.779,15.279,34.06,34.06,34.06
		c18.771,0,34.05-15.28,34.05-34.06C2621.006,786.813,2605.727,771.543,2586.956,771.543z M2586.956,824.194
		c-10.26,0-18.6-8.34-18.6-18.6c0-10.261,8.34-18.601,18.6-18.601c10.25,0,18.601,8.34,18.601,18.601
		C2605.557,815.854,2597.206,824.194,2586.956,824.194z"/>
</g>
<g>
	<path style="fill:#F0F4FF;" d="M1827.326,1741.144c-18.77,0-34.05,15.27-34.05,34.05c0,18.78,15.28,34.061,34.05,34.061
		c18.78,0,34.061-15.28,34.061-34.061C1861.387,1756.414,1846.106,1741.144,1827.326,1741.144z M1827.326,1793.793
		c-10.25,0-18.6-8.34-18.6-18.599c0-10.25,8.35-18.6,18.6-18.6c10.26,0,18.6,8.35,18.6,18.6
		C1845.926,1785.453,1837.586,1793.793,1827.326,1793.793z"/>
</g>
</svg>
